solid OpenSCAD_Model
  facet normal -0.879707 0 -0.475516
    outer loop
      vertex -369.453 -10.9397 -201.012
      vertex -375.231 0 -190.323
      vertex -369.453 10.9397 -201.012
    endloop
  endfacet
  facet normal -0.879706 -1.79158e-07 -0.475518
    outer loop
      vertex -365.222 -4.4741 -208.84
      vertex -365.768 -6.46564 -207.829
      vertex -364.884 -2.28703 -209.465
    endloop
  endfacet
  facet normal -0.472912 0.104529 0.874887
    outer loop
      vertex -231.724 2.28703 -113.025
      vertex -5.23069 0 9.67677
      vertex -5.11638 2.28703 9.46531
    endloop
  endfacet
  facet normal -0.472912 0.10453 0.874887
    outer loop
      vertex -5.23069 0 9.67677
      vertex -231.724 2.28703 -113.025
      vertex -231.839 0 -112.814
    endloop
  endfacet
  facet normal -0.472912 0.104536 0.874887
    outer loop
      vertex -375.116 2.28703 -190.535
      vertex -267.027 0 -131.835
      vertex -266.912 2.28703 -132.046
    endloop
  endfacet
  facet normal -0.472912 0.104524 0.874888
    outer loop
      vertex -267.027 0 -131.835
      vertex -375.116 2.28703 -190.535
      vertex -375.231 0 -190.323
    endloop
  endfacet
  facet normal -0.879708 -1.70278e-06 -0.475515
    outer loop
      vertex -373.5 -8.17459 -193.525
      vertex -375.231 0 -190.323
      vertex -369.453 -10.9397 -201.012
    endloop
  endfacet
  facet normal 0.279501 -0.809018 -0.517077
    outer loop
      vertex -367.385 -9.52628 -204.838
      vertex -258.296 -8.17459 -147.986
      vertex -259.181 -9.52628 -146.35
    endloop
  endfacet
  facet normal 0.279503 -0.809016 -0.51708
    outer loop
      vertex -258.296 -8.17459 -147.986
      vertex -367.385 -9.52628 -204.838
      vertex -366.5 -8.17459 -206.475
    endloop
  endfacet
  facet normal 0.279502 -0.809017 -0.517078
    outer loop
      vertex -223.992 -9.52628 -127.329
      vertex 0 -8.17459 -8.36692
      vertex 0 -9.52628 -6.25208
    endloop
  endfacet
  facet normal 0.279502 -0.809017 -0.517078
    outer loop
      vertex 0 -8.17459 -8.36692
      vertex -223.992 -9.52628 -127.329
      vertex -223.108 -8.17459 -128.966
    endloop
  endfacet
  facet normal 0.0988655 -0.978148 -0.182901
    outer loop
      vertex -369.453 -10.9397 -201.012
      vertex -260.18 -10.4616 -144.502
      vertex -261.249 -10.9397 -142.523
    endloop
  endfacet
  facet normal 0.0988661 -0.978147 -0.182902
    outer loop
      vertex -260.18 -10.4616 -144.502
      vertex -369.453 -10.9397 -201.012
      vertex -368.384 -10.4616 -202.99
    endloop
  endfacet
  facet normal 0.0988655 -0.978148 -0.182901
    outer loop
      vertex -226.061 -10.9397 -123.502
      vertex 0 -10.4616 -3.864
      vertex 0 -10.9397 -1.30704
    endloop
  endfacet
  facet normal 0.0988655 -0.978148 -0.182901
    outer loop
      vertex 0 -10.4616 -3.864
      vertex -226.061 -10.9397 -123.502
      vertex -224.991 -10.4616 -125.481
    endloop
  endfacet
  facet normal 0.35338 -0.669127 -0.653752
    outer loop
      vertex -366.5 -8.17459 -206.475
      vertex -257.564 -6.46564 -149.34
      vertex -258.296 -8.17459 -147.986
    endloop
  endfacet
  facet normal 0.353377 -0.669133 -0.653747
    outer loop
      vertex -257.564 -6.46564 -149.34
      vertex -366.5 -8.17459 -206.475
      vertex -365.768 -6.46564 -207.829
    endloop
  endfacet
  facet normal 0.353378 -0.669131 -0.653749
    outer loop
      vertex -223.108 -8.17459 -128.966
      vertex 0 -6.46564 -10.1161
      vertex 0 -8.17459 -8.36692
    endloop
  endfacet
  facet normal 0.353378 -0.66913 -0.65375
    outer loop
      vertex 0 -6.46564 -10.1161
      vertex -223.108 -8.17459 -128.966
      vertex -222.376 -6.46564 -130.319
    endloop
  endfacet
  facet normal -0.879709 3.29514e-05 -0.475512
    outer loop
      vertex -368.384 -10.4616 -202.99
      vertex -369.453 -10.9397 -201.012
      vertex -367.385 -9.52628 -204.838
    endloop
  endfacet
  facet normal 0.879707 0 0.475517
    outer loop
      vertex -5.11638 2.28703 9.46531
      vertex -4.74306 0 8.77465
      vertex -4.74306 4.05039 8.77465
    endloop
  endfacet
  facet normal 0.879707 -0 0.475517
    outer loop
      vertex -5.11638 -2.28703 9.46531
      vertex -4.74306 0 8.77465
      vertex -5.11638 2.28703 9.46531
    endloop
  endfacet
  facet normal 0.879706 2.33998e-07 0.475517
    outer loop
      vertex -5.11638 -2.28703 9.46531
      vertex -4.23171 0 7.82867
      vertex -4.74306 0 8.77465
    endloop
  endfacet
  facet normal 0.879706 0 0.475517
    outer loop
      vertex -4.23171 0 7.82867
      vertex -5.11638 -2.28703 9.46531
      vertex -4.23171 -6.46564 7.82867
    endloop
  endfacet
  facet normal -0.879701 4.91219e-06 -0.475528
    outer loop
      vertex -374.778 -4.4741 -191.16
      vertex -375.231 0 -190.323
      vertex -373.5 -8.17459 -193.525
    endloop
  endfacet
  facet normal 0.879706 -1.42926e-06 0.475517
    outer loop
      vertex -0.546755 -10.9397 1.0115
      vertex -2.61534 -9.52628 4.83839
      vertex -1.61637 -10.4616 2.99029
    endloop
  endfacet
  facet normal -0.879708 1.70278e-06 -0.475515
    outer loop
      vertex -369.453 10.9397 -201.012
      vertex -375.231 0 -190.323
      vertex -373.5 8.17459 -193.525
    endloop
  endfacet
  facet normal -0.879706 0 -0.475518
    outer loop
      vertex -365.768 -6.46564 -207.829
      vertex -369.453 10.9397 -201.012
      vertex -365.768 6.46564 -207.829
    endloop
  endfacet
  facet normal -0.879706 -0 -0.475518
    outer loop
      vertex -369.453 10.9397 -201.012
      vertex -365.768 -6.46564 -207.829
      vertex -369.453 -10.9397 -201.012
    endloop
  endfacet
  facet normal -0.879709 -3.29514e-05 -0.475512
    outer loop
      vertex -367.385 9.52628 -204.838
      vertex -369.453 10.9397 -201.012
      vertex -368.384 10.4616 -202.99
    endloop
  endfacet
  facet normal -0.879709 8.15619e-06 -0.475513
    outer loop
      vertex -369.453 10.9397 -201.012
      vertex -373.5 8.17459 -193.525
      vertex -371.616 10.4616 -197.01
    endloop
  endfacet
  facet normal 0.879706 -8.25936e-08 0.475517
    outer loop
      vertex -0.546755 -10.9397 1.0115
      vertex -4.23171 -6.46564 7.82867
      vertex -2.61534 -9.52628 4.83839
    endloop
  endfacet
  facet normal 0.879707 -6.04415e-08 0.475517
    outer loop
      vertex 0 -9.90445 9.54277e-07
      vertex -0.546755 -10.9397 1.0115
      vertex 0 -10.2759 9.07063e-07
    endloop
  endfacet
  facet normal -0.279501 -0.809018 0.517077
    outer loop
      vertex -373.5 -8.17459 -193.525
      vertex -264.411 -9.52628 -136.673
      vertex -265.296 -8.17459 -135.036
    endloop
  endfacet
  facet normal -0.279503 -0.809016 0.51708
    outer loop
      vertex -264.411 -9.52628 -136.673
      vertex -373.5 -8.17459 -193.525
      vertex -372.615 -9.52628 -195.162
    endloop
  endfacet
  facet normal -0.279502 -0.809017 0.517078
    outer loop
      vertex -230.108 -8.17459 -116.016
      vertex -2.61534 -9.52628 4.83839
      vertex -3.50001 -8.17459 6.47502
    endloop
  endfacet
  facet normal -0.279502 -0.809017 0.517078
    outer loop
      vertex -2.61534 -9.52628 4.83839
      vertex -230.108 -8.17459 -116.016
      vertex -229.223 -9.52628 -117.652
    endloop
  endfacet
  facet normal 0.472912 -0.10453 -0.874887
    outer loop
      vertex -256.68 -2.28703 -150.977
      vertex -364.769 0 -209.677
      vertex -256.565 0 -151.188
    endloop
  endfacet
  facet normal 0.472912 -0.104524 -0.874888
    outer loop
      vertex -364.769 0 -209.677
      vertex -256.68 -2.28703 -150.977
      vertex -364.884 -2.28703 -209.465
    endloop
  endfacet
  facet normal 0.472912 -0.104529 -0.874887
    outer loop
      vertex 0 -2.28703 -12.2309
      vertex -221.377 0 -132.167
      vertex 0 0 -12.5042
    endloop
  endfacet
  facet normal 0.472912 -0.104527 -0.874888
    outer loop
      vertex -221.377 0 -132.167
      vertex 0 -2.28703 -12.2309
      vertex -221.491 -2.28703 -131.956
    endloop
  endfacet
  facet normal 0.879706 0 0.475518
    outer loop
      vertex -5.11638 2.28703 9.46531
      vertex -5.23069 0 9.67677
      vertex -5.11638 -2.28703 9.46531
    endloop
  endfacet
  facet normal -0.472912 -0.104529 0.874887
    outer loop
      vertex -5.23069 0 9.67677
      vertex -231.724 -2.28703 -113.025
      vertex -5.11638 -2.28703 9.46531
    endloop
  endfacet
  facet normal -0.472912 -0.10453 0.874887
    outer loop
      vertex -231.724 -2.28703 -113.025
      vertex -5.23069 0 9.67677
      vertex -231.839 0 -112.814
    endloop
  endfacet
  facet normal -0.472912 -0.104536 0.874887
    outer loop
      vertex -267.027 0 -131.835
      vertex -375.116 -2.28703 -190.535
      vertex -266.912 -2.28703 -132.046
    endloop
  endfacet
  facet normal -0.472912 -0.104524 0.874888
    outer loop
      vertex -375.116 -2.28703 -190.535
      vertex -267.027 0 -131.835
      vertex -375.231 0 -190.323
    endloop
  endfacet
  facet normal -0.879701 -4.91219e-06 -0.475528
    outer loop
      vertex -373.5 8.17459 -193.525
      vertex -375.231 0 -190.323
      vertex -374.778 4.4741 -191.16
    endloop
  endfacet
  facet normal -0.879702 -1.36791e-05 -0.475525
    outer loop
      vertex -367.385 -9.52628 -204.838
      vertex -369.453 -10.9397 -201.012
      vertex -365.768 -6.46564 -207.829
    endloop
  endfacet
  facet normal 0.879707 0 0.475517
    outer loop
      vertex -0.546755 0 1.0115
      vertex 0 -9.90445 9.54277e-07
      vertex 0 0 9.54277e-07
    endloop
  endfacet
  facet normal 0.879707 0 0.475517
    outer loop
      vertex 0 -9.90445 9.54277e-07
      vertex -0.546755 0 1.0115
      vertex -0.546755 -10.9397 1.0115
    endloop
  endfacet
  facet normal 0.35338 0.669127 -0.653752
    outer loop
      vertex -257.564 6.46564 -149.34
      vertex -366.5 8.17459 -206.475
      vertex -258.296 8.17459 -147.986
    endloop
  endfacet
  facet normal 0.353377 0.669133 -0.653747
    outer loop
      vertex -366.5 8.17459 -206.475
      vertex -257.564 6.46564 -149.34
      vertex -365.768 6.46564 -207.829
    endloop
  endfacet
  facet normal 0.353378 0.66913 -0.65375
    outer loop
      vertex 0 6.63258 -9.94522
      vertex 0 6.46564 -10.1161
      vertex -1.04528 7.18461 -9.94522
    endloop
  endfacet
  facet normal 0.353378 0.669131 -0.653749
    outer loop
      vertex -222.376 6.46564 -130.319
      vertex -2.39077 8.17459 -9.65923
      vertex -1.04528 7.18461 -9.94522
    endloop
  endfacet
  facet normal 0.353378 0.66913 -0.65375
    outer loop
      vertex -222.376 6.46564 -130.319
      vertex -1.04528 7.18461 -9.94522
      vertex 0 6.46564 -10.1161
    endloop
  endfacet
  facet normal 0.353378 0.66913 -0.65375
    outer loop
      vertex -2.39077 8.17459 -9.65923
      vertex -222.376 6.46564 -130.319
      vertex -223.108 8.17459 -128.966
    endloop
  endfacet
  facet normal 0.279501 0.809018 -0.517077
    outer loop
      vertex -258.296 8.17459 -147.986
      vertex -367.385 9.52628 -204.838
      vertex -259.181 9.52628 -146.35
    endloop
  endfacet
  facet normal 0.279503 0.809016 -0.51708
    outer loop
      vertex -367.385 9.52628 -204.838
      vertex -258.296 8.17459 -147.986
      vertex -366.5 8.17459 -206.475
    endloop
  endfacet
  facet normal 0.279502 0.809017 -0.517079
    outer loop
      vertex -223.108 8.17459 -128.966
      vertex -4.70121 9.52628 -8.79328
      vertex -3.09017 8.51124 -9.51056
    endloop
  endfacet
  facet normal 0.279502 0.809017 -0.517078
    outer loop
      vertex -223.108 8.17459 -128.966
      vertex -3.09017 8.51124 -9.51056
      vertex -2.39077 8.17459 -9.65923
    endloop
  endfacet
  facet normal 0.279502 0.809017 -0.517078
    outer loop
      vertex -4.70121 9.52628 -8.79328
      vertex -223.108 8.17459 -128.966
      vertex -223.992 9.52628 -127.329
    endloop
  endfacet
  facet normal 0.193411 0.913545 -0.35781
    outer loop
      vertex -259.181 9.52628 -146.35
      vertex -368.384 10.4616 -202.99
      vertex -260.18 10.4616 -144.502
    endloop
  endfacet
  facet normal 0.19341 0.913546 -0.357808
    outer loop
      vertex -368.384 10.4616 -202.99
      vertex -259.181 9.52628 -146.35
      vertex -367.385 9.52628 -204.838
    endloop
  endfacet
  facet normal 0.19341 0.913545 -0.357809
    outer loop
      vertex -223.992 9.52628 -127.329
      vertex -6.65226 10.4616 -7.45982
      vertex -5 9.64164 -8.66025
    endloop
  endfacet
  facet normal 0.19341 0.913545 -0.357809
    outer loop
      vertex -223.992 9.52628 -127.329
      vertex -5 9.64164 -8.66025
      vertex -4.70121 9.52628 -8.79328
    endloop
  endfacet
  facet normal 0.19341 0.913546 -0.357809
    outer loop
      vertex -6.65226 10.4616 -7.45982
      vertex -223.992 9.52628 -127.329
      vertex -224.991 10.4616 -125.481
    endloop
  endfacet
  facet normal -0.879709 1.31275e-05 -0.475513
    outer loop
      vertex -369.453 10.9397 -201.012
      vertex -371.616 10.4616 -197.01
      vertex -370.547 10.9397 -198.988
    endloop
  endfacet
  facet normal -0.879696 -1.23855e-05 -0.475537
    outer loop
      vertex -373.5 8.17459 -193.525
      vertex -374.778 4.4741 -191.16
      vertex -374.232 6.46564 -192.171
    endloop
  endfacet
  facet normal -0.879709 -8.15619e-06 -0.475513
    outer loop
      vertex -371.616 -10.4616 -197.01
      vertex -373.5 -8.17459 -193.525
      vertex -369.453 -10.9397 -201.012
    endloop
  endfacet
  facet normal -0.0988655 -0.978148 0.182901
    outer loop
      vertex -371.616 -10.4616 -197.01
      vertex -262.343 -10.9397 -140.5
      vertex -263.412 -10.4616 -138.521
    endloop
  endfacet
  facet normal -0.0988655 -0.978148 0.182901
    outer loop
      vertex -262.343 -10.9397 -140.5
      vertex -371.616 -10.4616 -197.01
      vertex -370.547 -10.9397 -198.988
    endloop
  endfacet
  facet normal -0.0988655 -0.978148 0.182901
    outer loop
      vertex -228.224 -10.4616 -119.5
      vertex -0.546755 -10.9397 1.0115
      vertex -1.61637 -10.4616 2.99029
    endloop
  endfacet
  facet normal -0.0988652 -0.978148 0.182901
    outer loop
      vertex -0.546755 -10.9397 1.0115
      vertex -228.224 -10.4616 -119.5
      vertex -227.155 -10.9397 -121.479
    endloop
  endfacet
  facet normal 0.411809 0.500002 -0.761847
    outer loop
      vertex -365.222 4.4741 -208.84
      vertex -257.564 6.46564 -149.34
      vertex -257.018 4.4741 -150.352
    endloop
  endfacet
  facet normal 0.411811 0.499997 -0.76185
    outer loop
      vertex -257.564 6.46564 -149.34
      vertex -365.222 4.4741 -208.84
      vertex -365.768 6.46564 -207.829
    endloop
  endfacet
  facet normal 0.41181 0.5 -0.761848
    outer loop
      vertex -221.829 4.4741 -131.331
      vertex 0 6.46564 -10.1161
      vertex 0 4.4741 -11.4231
    endloop
  endfacet
  facet normal 0.41181 0.5 -0.761848
    outer loop
      vertex 0 6.46564 -10.1161
      vertex -221.829 4.4741 -131.331
      vertex -222.376 6.46564 -130.319
    endloop
  endfacet
  facet normal 0.452244 -0.309017 -0.83665
    outer loop
      vertex -257.018 -4.4741 -150.352
      vertex -364.884 -2.28703 -209.465
      vertex -256.68 -2.28703 -150.977
    endloop
  endfacet
  facet normal 0.452243 -0.309023 -0.836649
    outer loop
      vertex -364.884 -2.28703 -209.465
      vertex -257.018 -4.4741 -150.352
      vertex -365.222 -4.4741 -208.84
    endloop
  endfacet
  facet normal 0.452244 -0.309017 -0.836651
    outer loop
      vertex 0 -4.4741 -11.4231
      vertex -221.491 -2.28703 -131.956
      vertex 0 -2.28703 -12.2309
    endloop
  endfacet
  facet normal 0.452243 -0.30902 -0.83665
    outer loop
      vertex -221.491 -2.28703 -131.956
      vertex 0 -4.4741 -11.4231
      vertex -221.829 -4.4741 -131.331
    endloop
  endfacet
  facet normal 0.879707 -0 0.475517
    outer loop
      vertex -4.23171 -6.46564 7.82867
      vertex -0.546755 0 1.0115
      vertex -4.23171 0 7.82867
    endloop
  endfacet
  facet normal 0.879707 0 0.475517
    outer loop
      vertex -0.546755 0 1.0115
      vertex -4.23171 -6.46564 7.82867
      vertex -0.546755 -10.9397 1.0115
    endloop
  endfacet
  facet normal -0.879696 7.19274e-06 -0.475537
    outer loop
      vertex -375.116 -2.28703 -190.535
      vertex -375.231 0 -190.323
      vertex -374.778 -4.4741 -191.16
    endloop
  endfacet
  facet normal -0.452244 0.309017 0.836651
    outer loop
      vertex -231.386 4.4741 -113.651
      vertex -5.11638 2.28703 9.46531
      vertex -4.77847 4.4741 8.84017
    endloop
  endfacet
  facet normal -0.452244 0.309017 0.836651
    outer loop
      vertex -5.11638 2.28703 9.46531
      vertex -231.386 4.4741 -113.651
      vertex -231.724 2.28703 -113.025
    endloop
  endfacet
  facet normal -0.452243 0.309017 0.836651
    outer loop
      vertex -374.778 4.4741 -191.16
      vertex -266.912 2.28703 -132.046
      vertex -266.575 4.4741 -132.671
    endloop
  endfacet
  facet normal -0.452243 0.309023 0.836649
    outer loop
      vertex -266.912 2.28703 -132.046
      vertex -374.778 4.4741 -191.16
      vertex -375.116 2.28703 -190.535
    endloop
  endfacet
  facet normal -0.879696 -7.19274e-06 -0.475537
    outer loop
      vertex -374.778 4.4741 -191.16
      vertex -375.231 0 -190.323
      vertex -375.116 2.28703 -190.535
    endloop
  endfacet
  facet normal 0.472912 0.10453 -0.874887
    outer loop
      vertex -364.769 0 -209.677
      vertex -256.68 2.28703 -150.977
      vertex -256.565 0 -151.188
    endloop
  endfacet
  facet normal 0.472912 0.104524 -0.874888
    outer loop
      vertex -256.68 2.28703 -150.977
      vertex -364.769 0 -209.677
      vertex -364.884 2.28703 -209.465
    endloop
  endfacet
  facet normal 0.472912 0.104529 -0.874887
    outer loop
      vertex -221.377 0 -132.167
      vertex 0 2.28703 -12.2309
      vertex 0 0 -12.5042
    endloop
  endfacet
  facet normal 0.472912 0.104527 -0.874888
    outer loop
      vertex 0 2.28703 -12.2309
      vertex -221.377 0 -132.167
      vertex -221.491 2.28703 -131.956
    endloop
  endfacet
  facet normal -0.879733 -5.78543e-05 -0.475468
    outer loop
      vertex -365.768 6.46564 -207.829
      vertex -367.385 9.52628 -204.838
      vertex -366.5 8.17459 -206.475
    endloop
  endfacet
  facet normal -0.879702 1.36791e-05 -0.475525
    outer loop
      vertex -365.768 6.46564 -207.829
      vertex -369.453 10.9397 -201.012
      vertex -367.385 9.52628 -204.838
    endloop
  endfacet
  facet normal 0.879707 0 0.475516
    outer loop
      vertex -4.77847 4.4741 8.84017
      vertex -4.74306 4.05039 8.77465
      vertex -4.74306 4.6031 8.77465
    endloop
  endfacet
  facet normal 0.879707 -1.59079e-07 0.475516
    outer loop
      vertex -4.74306 4.05039 8.77465
      vertex -4.77847 4.4741 8.84017
      vertex -5.11638 2.28703 9.46531
    endloop
  endfacet
  facet normal 0 -1 0
    outer loop
      vertex -0.546755 -10.9397 1.0115
      vertex 0 -10.9397 -1.30704
      vertex 0 -10.9397 0
    endloop
  endfacet
  facet normal 0 -1 0
    outer loop
      vertex -227.155 -10.9397 -121.479
      vertex 0 -10.9397 -1.30704
      vertex -0.546755 -10.9397 1.0115
    endloop
  endfacet
  facet normal 0 -1 0
    outer loop
      vertex 0 -10.9397 -1.30704
      vertex -227.155 -10.9397 -121.479
      vertex -226.061 -10.9397 -123.502
    endloop
  endfacet
  facet normal 0 -1 0
    outer loop
      vertex 0 -10.9397 -1.30704
      vertex 0.546755 -10.9397 1.0115
      vertex 0 -10.9397 0
    endloop
  endfacet
  facet normal 0 -1 0
    outer loop
      vertex 0 -10.9397 -1.30704
      vertex 370.547 -10.9397 -198.988
      vertex 0.546755 -10.9397 1.0115
    endloop
  endfacet
  facet normal -0 -1 0
    outer loop
      vertex 370.547 -10.9397 -198.988
      vertex 0 -10.9397 -1.30704
      vertex 369.453 -10.9397 -201.012
    endloop
  endfacet
  facet normal 0 -1 0
    outer loop
      vertex -370.547 -10.9397 -198.988
      vertex -261.249 -10.9397 -142.523
      vertex -262.343 -10.9397 -140.5
    endloop
  endfacet
  facet normal 0 -1 0
    outer loop
      vertex -261.249 -10.9397 -142.523
      vertex -370.547 -10.9397 -198.988
      vertex -369.453 -10.9397 -201.012
    endloop
  endfacet
  facet normal -0.193411 0.913545 0.35781
    outer loop
      vertex -263.412 10.4616 -138.521
      vertex -372.615 9.52628 -195.162
      vertex -264.411 9.52628 -136.673
    endloop
  endfacet
  facet normal -0.193411 0.913545 0.35781
    outer loop
      vertex -372.615 9.52628 -195.162
      vertex -263.412 10.4616 -138.521
      vertex -371.616 10.4616 -197.01
    endloop
  endfacet
  facet normal -0.19341 0.913546 0.357809
    outer loop
      vertex -10 9.8579 0
      vertex -229.223 9.52628 -117.652
      vertex -9.90565 9.52628 0.897679
    endloop
  endfacet
  facet normal -0.19341 0.913545 0.357809
    outer loop
      vertex -9.8467 10.4616 -1.45854
      vertex -229.223 9.52628 -117.652
      vertex -10 9.8579 0
    endloop
  endfacet
  facet normal -0.193411 0.913545 0.35781
    outer loop
      vertex -229.223 9.52628 -117.652
      vertex -9.8467 10.4616 -1.45854
      vertex -228.224 10.4616 -119.5
    endloop
  endfacet
  facet normal -0.879682 -9.01074e-05 -0.475563
    outer loop
      vertex -371.616 10.4616 -197.01
      vertex -373.5 8.17459 -193.525
      vertex -372.615 9.52628 -195.162
    endloop
  endfacet
  facet normal -0.0988655 0.978148 0.182901
    outer loop
      vertex -262.343 10.9397 -140.5
      vertex -371.616 10.4616 -197.01
      vertex -263.412 10.4616 -138.521
    endloop
  endfacet
  facet normal -0.0988655 0.978148 0.182901
    outer loop
      vertex -371.616 10.4616 -197.01
      vertex -262.343 10.9397 -140.5
      vertex -370.547 10.9397 -198.988
    endloop
  endfacet
  facet normal -0.0988658 0.978148 0.182902
    outer loop
      vertex -9.78148 10.5843 -2.07912
      vertex -228.224 10.4616 -119.5
      vertex -9.8467 10.4616 -1.45854
    endloop
  endfacet
  facet normal -0.0988654 0.978148 0.182901
    outer loop
      vertex -9.25604 10.9397 -3.69623
      vertex -228.224 10.4616 -119.5
      vertex -9.78148 10.5843 -2.07912
    endloop
  endfacet
  facet normal -0.0988652 0.978148 0.182901
    outer loop
      vertex -228.224 10.4616 -119.5
      vertex -9.25604 10.9397 -3.69623
      vertex -227.155 10.9397 -121.479
    endloop
  endfacet
  facet normal 0 1 0
    outer loop
      vertex 370.547 10.9397 -198.988
      vertex 9.13545 10.9397 -4.06737
      vertex 9.25604 10.9397 -3.69623
    endloop
  endfacet
  facet normal 0 1 -0
    outer loop
      vertex 369.453 10.9397 -201.012
      vertex 9.13545 10.9397 -4.06737
      vertex 370.547 10.9397 -198.988
    endloop
  endfacet
  facet normal 0 1 0
    outer loop
      vertex 9.13545 10.9397 -4.06737
      vertex 369.453 10.9397 -201.012
      vertex 8.17718 10.9397 -5.72714
    endloop
  endfacet
  facet normal 0 1 0
    outer loop
      vertex -261.249 10.9397 -142.523
      vertex -370.547 10.9397 -198.988
      vertex -262.343 10.9397 -140.5
    endloop
  endfacet
  facet normal -0 1 0
    outer loop
      vertex -370.547 10.9397 -198.988
      vertex -261.249 10.9397 -142.523
      vertex -369.453 10.9397 -201.012
    endloop
  endfacet
  facet normal 0 1 0
    outer loop
      vertex -9.13545 10.9397 -4.06737
      vertex -227.155 10.9397 -121.479
      vertex -9.25604 10.9397 -3.69623
    endloop
  endfacet
  facet normal 0 1 0
    outer loop
      vertex -226.061 10.9397 -123.502
      vertex -9.13545 10.9397 -4.06737
      vertex -8.17718 10.9397 -5.72714
    endloop
  endfacet
  facet normal 0 1 0
    outer loop
      vertex -9.13545 10.9397 -4.06737
      vertex -226.061 10.9397 -123.502
      vertex -227.155 10.9397 -121.479
    endloop
  endfacet
  facet normal -0.879682 9.01074e-05 -0.475563
    outer loop
      vertex -372.615 -9.52628 -195.162
      vertex -373.5 -8.17459 -193.525
      vertex -371.616 -10.4616 -197.01
    endloop
  endfacet
  facet normal -0.193411 -0.913545 0.35781
    outer loop
      vertex -372.615 -9.52628 -195.162
      vertex -263.412 -10.4616 -138.521
      vertex -264.411 -9.52628 -136.673
    endloop
  endfacet
  facet normal -0.193411 -0.913545 0.35781
    outer loop
      vertex -263.412 -10.4616 -138.521
      vertex -372.615 -9.52628 -195.162
      vertex -371.616 -10.4616 -197.01
    endloop
  endfacet
  facet normal -0.19341 -0.913545 0.357809
    outer loop
      vertex -229.223 -9.52628 -117.652
      vertex -1.61637 -10.4616 2.99029
      vertex -2.61534 -9.52628 4.83839
    endloop
  endfacet
  facet normal -0.193411 -0.913545 0.35781
    outer loop
      vertex -1.61637 -10.4616 2.99029
      vertex -229.223 -9.52628 -117.652
      vertex -228.224 -10.4616 -119.5
    endloop
  endfacet
  facet normal -0.879733 5.78543e-05 -0.475468
    outer loop
      vertex -366.5 -8.17459 -206.475
      vertex -367.385 -9.52628 -204.838
      vertex -365.768 -6.46564 -207.829
    endloop
  endfacet
  facet normal -0.879706 0 -0.475518
    outer loop
      vertex -364.884 -2.28703 -209.465
      vertex -365.768 6.46564 -207.829
      vertex -364.884 2.28703 -209.465
    endloop
  endfacet
  facet normal -0.879706 -0 -0.475518
    outer loop
      vertex -365.768 6.46564 -207.829
      vertex -364.884 -2.28703 -209.465
      vertex -365.768 -6.46564 -207.829
    endloop
  endfacet
  facet normal -0.879728 0 -0.475477
    outer loop
      vertex -364.769 0 -209.677
      vertex -364.884 -2.28703 -209.465
      vertex -364.884 2.28703 -209.465
    endloop
  endfacet
  facet normal 0.879707 -7.34848e-08 0.475517
    outer loop
      vertex 0 -10.2759 9.07063e-07
      vertex -0.546755 -10.9397 1.0115
      vertex 0 -10.5661 8.62209e-07
    endloop
  endfacet
  facet normal 0.411809 -0.500002 -0.761847
    outer loop
      vertex -257.564 -6.46564 -149.34
      vertex -365.222 -4.4741 -208.84
      vertex -257.018 -4.4741 -150.352
    endloop
  endfacet
  facet normal 0.411811 -0.499997 -0.76185
    outer loop
      vertex -365.222 -4.4741 -208.84
      vertex -257.564 -6.46564 -149.34
      vertex -365.768 -6.46564 -207.829
    endloop
  endfacet
  facet normal 0.41181 -0.5 -0.761848
    outer loop
      vertex 0 -6.46564 -10.1161
      vertex -221.829 -4.4741 -131.331
      vertex 0 -4.4741 -11.4231
    endloop
  endfacet
  facet normal 0.41181 -0.5 -0.761848
    outer loop
      vertex -221.829 -4.4741 -131.331
      vertex 0 -6.46564 -10.1161
      vertex -222.376 -6.46564 -130.319
    endloop
  endfacet
  facet normal -0.35338 -0.669127 0.653752
    outer loop
      vertex -374.232 -6.46564 -192.171
      vertex -265.296 -8.17459 -135.036
      vertex -266.028 -6.46564 -133.683
    endloop
  endfacet
  facet normal -0.353377 -0.669133 0.653747
    outer loop
      vertex -265.296 -8.17459 -135.036
      vertex -374.232 -6.46564 -192.171
      vertex -373.5 -8.17459 -193.525
    endloop
  endfacet
  facet normal -0.353378 -0.669131 0.653749
    outer loop
      vertex -230.84 -6.46564 -114.662
      vertex -3.50001 -8.17459 6.47502
      vertex -4.23171 -6.46564 7.82867
    endloop
  endfacet
  facet normal -0.353378 -0.669132 0.653748
    outer loop
      vertex -3.50001 -8.17459 6.47502
      vertex -230.84 -6.46564 -114.662
      vertex -230.108 -8.17459 -116.016
    endloop
  endfacet
  facet normal 0.879706 -9.24567e-07 0.475518
    outer loop
      vertex -2.61534 -9.52628 4.83839
      vertex -4.23171 -6.46564 7.82867
      vertex -3.50001 -8.17459 6.47502
    endloop
  endfacet
  facet normal -0.452244 -0.309017 0.836651
    outer loop
      vertex -5.11638 -2.28703 9.46531
      vertex -231.386 -4.4741 -113.651
      vertex -4.77847 -4.4741 8.84017
    endloop
  endfacet
  facet normal -0.452244 -0.309017 0.836651
    outer loop
      vertex -231.386 -4.4741 -113.651
      vertex -5.11638 -2.28703 9.46531
      vertex -231.724 -2.28703 -113.025
    endloop
  endfacet
  facet normal -0.452243 -0.309017 0.836651
    outer loop
      vertex -266.912 -2.28703 -132.046
      vertex -374.778 -4.4741 -191.16
      vertex -266.575 -4.4741 -132.671
    endloop
  endfacet
  facet normal -0.452243 -0.309023 0.836649
    outer loop
      vertex -374.778 -4.4741 -191.16
      vertex -266.912 -2.28703 -132.046
      vertex -375.116 -2.28703 -190.535
    endloop
  endfacet
  facet normal 0.193411 -0.913545 -0.35781
    outer loop
      vertex -368.384 -10.4616 -202.99
      vertex -259.181 -9.52628 -146.35
      vertex -260.18 -10.4616 -144.502
    endloop
  endfacet
  facet normal 0.19341 -0.913546 -0.357808
    outer loop
      vertex -259.181 -9.52628 -146.35
      vertex -368.384 -10.4616 -202.99
      vertex -367.385 -9.52628 -204.838
    endloop
  endfacet
  facet normal 0.19341 -0.913545 -0.357809
    outer loop
      vertex -224.991 -10.4616 -125.481
      vertex 0 -9.52628 -6.25208
      vertex 0 -10.4616 -3.864
    endloop
  endfacet
  facet normal 0.19341 -0.913546 -0.357809
    outer loop
      vertex 0 -9.52628 -6.25208
      vertex -224.991 -10.4616 -125.481
      vertex -223.992 -9.52628 -127.329
    endloop
  endfacet
  facet normal 0.452244 0.309017 -0.83665
    outer loop
      vertex -364.884 2.28703 -209.465
      vertex -257.018 4.4741 -150.352
      vertex -256.68 2.28703 -150.977
    endloop
  endfacet
  facet normal 0.452243 0.309023 -0.836649
    outer loop
      vertex -257.018 4.4741 -150.352
      vertex -364.884 2.28703 -209.465
      vertex -365.222 4.4741 -208.84
    endloop
  endfacet
  facet normal 0.452244 0.309017 -0.836651
    outer loop
      vertex -221.491 2.28703 -131.956
      vertex 0 4.4741 -11.4231
      vertex 0 2.28703 -12.2309
    endloop
  endfacet
  facet normal 0.452243 0.30902 -0.83665
    outer loop
      vertex 0 4.4741 -11.4231
      vertex -221.491 2.28703 -131.956
      vertex -221.829 4.4741 -131.331
    endloop
  endfacet
  facet normal -0.879706 1.79158e-07 -0.475518
    outer loop
      vertex -364.884 2.28703 -209.465
      vertex -365.768 6.46564 -207.829
      vertex -365.222 4.4741 -208.84
    endloop
  endfacet
  facet normal -0.279501 0.809018 0.517077
    outer loop
      vertex -264.411 9.52628 -136.673
      vertex -373.5 8.17459 -193.525
      vertex -265.296 8.17459 -135.036
    endloop
  endfacet
  facet normal -0.279503 0.809016 0.51708
    outer loop
      vertex -373.5 8.17459 -193.525
      vertex -264.411 9.52628 -136.673
      vertex -372.615 9.52628 -195.162
    endloop
  endfacet
  facet normal -0.279502 0.809017 0.517078
    outer loop
      vertex -9.78148 8.81407 2.07912
      vertex -230.108 8.17459 -116.016
      vertex -9.38713 8.17459 3.2928
    endloop
  endfacet
  facet normal -0.279502 0.809017 0.517079
    outer loop
      vertex -9.90565 9.52628 0.897679
      vertex -230.108 8.17459 -116.016
      vertex -9.78148 8.81407 2.07912
    endloop
  endfacet
  facet normal -0.279502 0.809017 0.517078
    outer loop
      vertex -230.108 8.17459 -116.016
      vertex -9.90565 9.52628 0.897679
      vertex -229.223 9.52628 -117.652
    endloop
  endfacet
  facet normal -0.411809 0.500002 0.761847
    outer loop
      vertex -374.232 6.46564 -192.171
      vertex -266.575 4.4741 -132.671
      vertex -266.028 6.46564 -133.683
    endloop
  endfacet
  facet normal -0.411811 0.499997 0.76185
    outer loop
      vertex -266.575 4.4741 -132.671
      vertex -374.232 6.46564 -192.171
      vertex -374.778 4.4741 -191.16
    endloop
  endfacet
  facet normal -0.41181 0.5 0.761848
    outer loop
      vertex -5 4.56578 8.66025
      vertex -4.77847 4.4741 8.84017
      vertex -4.74306 4.6031 8.77465
    endloop
  endfacet
  facet normal -0.41181 0.5 0.761848
    outer loop
      vertex -6.69131 5.04512 7.43145
      vertex -4.77847 4.4741 8.84017
      vertex -5 4.56578 8.66025
    endloop
  endfacet
  facet normal -0.41181 0.499999 0.761848
    outer loop
      vertex -231.386 4.4741 -113.651
      vertex -8.20333 6.46564 5.68185
      vertex -230.84 6.46564 -114.662
    endloop
  endfacet
  facet normal -0.41181 0.500001 0.761848
    outer loop
      vertex -8.20333 6.46564 5.68185
      vertex -231.386 4.4741 -113.651
      vertex -8.09017 6.26019 5.87785
    endloop
  endfacet
  facet normal -0.41181 0.5 0.761848
    outer loop
      vertex -8.09017 6.26019 5.87785
      vertex -231.386 4.4741 -113.651
      vertex -6.69131 5.04512 7.43145
    endloop
  endfacet
  facet normal -0.41181 0.5 0.761848
    outer loop
      vertex -6.69131 5.04512 7.43145
      vertex -231.386 4.4741 -113.651
      vertex -4.77847 4.4741 8.84017
    endloop
  endfacet
  facet normal -0.35338 0.669127 0.653752
    outer loop
      vertex -265.296 8.17459 -135.036
      vertex -374.232 6.46564 -192.171
      vertex -266.028 6.46564 -133.683
    endloop
  endfacet
  facet normal -0.353377 0.669133 0.653747
    outer loop
      vertex -374.232 6.46564 -192.171
      vertex -265.296 8.17459 -135.036
      vertex -373.5 8.17459 -193.525
    endloop
  endfacet
  facet normal -0.353378 0.669131 0.653749
    outer loop
      vertex -9.13545 7.55074 4.06737
      vertex -230.84 6.46564 -114.662
      vertex -8.20333 6.46564 5.68185
    endloop
  endfacet
  facet normal -0.353378 0.66913 0.653749
    outer loop
      vertex -9.38713 8.17459 3.2928
      vertex -230.84 6.46564 -114.662
      vertex -9.13545 7.55074 4.06737
    endloop
  endfacet
  facet normal -0.353378 0.669132 0.653748
    outer loop
      vertex -230.84 6.46564 -114.662
      vertex -9.38713 8.17459 3.2928
      vertex -230.108 8.17459 -116.016
    endloop
  endfacet
  facet normal -0.879709 -1.31275e-05 -0.475513
    outer loop
      vertex -370.547 -10.9397 -198.988
      vertex -371.616 -10.4616 -197.01
      vertex -369.453 -10.9397 -201.012
    endloop
  endfacet
  facet normal -0.41181 -0.5 0.761848
    outer loop
      vertex -4.77847 -4.4741 8.84017
      vertex -230.84 -6.46564 -114.662
      vertex -4.23171 -6.46564 7.82867
    endloop
  endfacet
  facet normal -0.41181 -0.499999 0.761848
    outer loop
      vertex -230.84 -6.46564 -114.662
      vertex -4.77847 -4.4741 8.84017
      vertex -231.386 -4.4741 -113.651
    endloop
  endfacet
  facet normal -0.411809 -0.500002 0.761847
    outer loop
      vertex -266.575 -4.4741 -132.671
      vertex -374.232 -6.46564 -192.171
      vertex -266.028 -6.46564 -133.683
    endloop
  endfacet
  facet normal -0.411811 -0.499997 0.76185
    outer loop
      vertex -374.232 -6.46564 -192.171
      vertex -266.575 -4.4741 -132.671
      vertex -374.778 -4.4741 -191.16
    endloop
  endfacet
  facet normal 0.879706 -3.14672e-07 0.475518
    outer loop
      vertex -4.23171 -6.46564 7.82867
      vertex -5.11638 -2.28703 9.46531
      vertex -4.77847 -4.4741 8.84017
    endloop
  endfacet
  facet normal -0.879696 1.23855e-05 -0.475537
    outer loop
      vertex -374.232 -6.46564 -192.171
      vertex -374.778 -4.4741 -191.16
      vertex -373.5 -8.17459 -193.525
    endloop
  endfacet
  facet normal 0.879707 -2.38063e-07 0.475517
    outer loop
      vertex 0 -10.5661 8.62209e-07
      vertex -0.546755 -10.9397 1.0115
      vertex 0 -10.8189 7.35674e-07
    endloop
  endfacet
  facet normal 0.879707 -2.89472e-06 0.475517
    outer loop
      vertex 0 -10.8189 7.35674e-07
      vertex -0.546755 -10.9397 1.0115
      vertex 0 -10.9397 0
    endloop
  endfacet
  facet normal 0.0988655 0.978148 -0.182901
    outer loop
      vertex -260.18 10.4616 -144.502
      vertex -369.453 10.9397 -201.012
      vertex -261.249 10.9397 -142.523
    endloop
  endfacet
  facet normal 0.0988661 0.978147 -0.182902
    outer loop
      vertex -369.453 10.9397 -201.012
      vertex -260.18 10.4616 -144.502
      vertex -368.384 10.4616 -202.99
    endloop
  endfacet
  facet normal 0.0988646 0.978148 -0.1829
    outer loop
      vertex -224.991 10.4616 -125.481
      vertex -8.17718 10.9397 -5.72714
      vertex -8.09017 10.9028 -5.87785
    endloop
  endfacet
  facet normal 0.0988654 0.978148 -0.182901
    outer loop
      vertex -224.991 10.4616 -125.481
      vertex -8.09017 10.9028 -5.87785
      vertex -6.69131 10.4709 -7.43145
    endloop
  endfacet
  facet normal 0.0988704 0.978145 -0.18291
    outer loop
      vertex -224.991 10.4616 -125.481
      vertex -6.69131 10.4709 -7.43145
      vertex -6.65226 10.4616 -7.45982
    endloop
  endfacet
  facet normal 0.0988655 0.978148 -0.182901
    outer loop
      vertex -8.17718 10.9397 -5.72714
      vertex -224.991 10.4616 -125.481
      vertex -226.061 10.9397 -123.502
    endloop
  endfacet
  facet normal 0.472912 0.104524 0.874888
    outer loop
      vertex 375.116 2.28703 -190.535
      vertex 5.23069 0 9.67677
      vertex 375.231 0 -190.323
    endloop
  endfacet
  facet normal 0.472912 0.104529 0.874887
    outer loop
      vertex 5.23069 0 9.67677
      vertex 375.116 2.28703 -190.535
      vertex 5.11638 2.28703 9.46531
    endloop
  endfacet
  facet normal 0.879728 0 -0.475477
    outer loop
      vertex 364.884 -2.28703 -209.465
      vertex 364.769 0 -209.677
      vertex 364.884 2.28703 -209.465
    endloop
  endfacet
  facet normal 0.452243 0.309023 0.836649
    outer loop
      vertex 374.778 4.4741 -191.16
      vertex 5.11638 2.28703 9.46531
      vertex 375.116 2.28703 -190.535
    endloop
  endfacet
  facet normal 0.452244 0.309017 0.836651
    outer loop
      vertex 5.11638 2.28703 9.46531
      vertex 374.778 4.4741 -191.16
      vertex 4.77847 4.4741 8.84017
    endloop
  endfacet
  facet normal 0.879709 -1.31275e-05 -0.475513
    outer loop
      vertex 370.547 -10.9397 -198.988
      vertex 369.453 -10.9397 -201.012
      vertex 371.616 -10.4616 -197.01
    endloop
  endfacet
  facet normal 0.879733 -5.78543e-05 -0.475468
    outer loop
      vertex 367.385 9.52628 -204.838
      vertex 365.768 6.46564 -207.829
      vertex 366.5 8.17459 -206.475
    endloop
  endfacet
  facet normal 0.879708 1.70278e-06 -0.475515
    outer loop
      vertex 375.231 0 -190.323
      vertex 369.453 10.9397 -201.012
      vertex 373.5 8.17459 -193.525
    endloop
  endfacet
  facet normal 0.879708 -1.70278e-06 -0.475515
    outer loop
      vertex 373.5 -8.17459 -193.525
      vertex 369.453 -10.9397 -201.012
      vertex 375.231 0 -190.323
    endloop
  endfacet
  facet normal 0.0988658 0.978148 0.182902
    outer loop
      vertex 371.616 10.4616 -197.01
      vertex 9.78148 10.5843 -2.07912
      vertex 9.8467 10.4616 -1.45854
    endloop
  endfacet
  facet normal 0.0988654 0.978148 0.182901
    outer loop
      vertex 371.616 10.4616 -197.01
      vertex 9.25604 10.9397 -3.69623
      vertex 9.78148 10.5843 -2.07912
    endloop
  endfacet
  facet normal 0.0988655 0.978148 0.182901
    outer loop
      vertex 9.25604 10.9397 -3.69623
      vertex 371.616 10.4616 -197.01
      vertex 370.547 10.9397 -198.988
    endloop
  endfacet
  facet normal 0.879702 1.36791e-05 -0.475525
    outer loop
      vertex 369.453 10.9397 -201.012
      vertex 365.768 6.46564 -207.829
      vertex 367.385 9.52628 -204.838
    endloop
  endfacet
  facet normal -0.353378 0.66913 -0.65375
    outer loop
      vertex 1.04528 7.18461 -9.94522
      vertex 0 6.46564 -10.1161
      vertex 0 6.63258 -9.94522
    endloop
  endfacet
  facet normal -0.353377 0.669133 -0.653747
    outer loop
      vertex 365.768 6.46564 -207.829
      vertex 2.39077 8.17459 -9.65923
      vertex 366.5 8.17459 -206.475
    endloop
  endfacet
  facet normal -0.353378 0.669131 -0.653749
    outer loop
      vertex 2.39077 8.17459 -9.65923
      vertex 365.768 6.46564 -207.829
      vertex 1.04528 7.18461 -9.94522
    endloop
  endfacet
  facet normal -0.353378 0.66913 -0.65375
    outer loop
      vertex 1.04528 7.18461 -9.94522
      vertex 365.768 6.46564 -207.829
      vertex 0 6.46564 -10.1161
    endloop
  endfacet
  facet normal 0.879733 5.78543e-05 -0.475468
    outer loop
      vertex 366.5 -8.17459 -206.475
      vertex 365.768 -6.46564 -207.829
      vertex 367.385 -9.52628 -204.838
    endloop
  endfacet
  facet normal 0.19341 0.913546 0.357809
    outer loop
      vertex 372.615 9.52628 -195.162
      vertex 10 9.8579 0
      vertex 9.90565 9.52628 0.897679
    endloop
  endfacet
  facet normal 0.19341 0.913545 0.357809
    outer loop
      vertex 372.615 9.52628 -195.162
      vertex 9.8467 10.4616 -1.45854
      vertex 10 9.8579 0
    endloop
  endfacet
  facet normal 0.193411 0.913545 0.35781
    outer loop
      vertex 9.8467 10.4616 -1.45854
      vertex 372.615 9.52628 -195.162
      vertex 371.616 10.4616 -197.01
    endloop
  endfacet
  facet normal 0.353378 -0.669131 0.653749
    outer loop
      vertex 3.50001 -8.17459 6.47502
      vertex 374.232 -6.46564 -192.171
      vertex 4.23171 -6.46564 7.82867
    endloop
  endfacet
  facet normal 0.353377 -0.669133 0.653747
    outer loop
      vertex 374.232 -6.46564 -192.171
      vertex 3.50001 -8.17459 6.47502
      vertex 373.5 -8.17459 -193.525
    endloop
  endfacet
  facet normal -0.279503 0.809016 -0.51708
    outer loop
      vertex 366.5 8.17459 -206.475
      vertex 4.70121 9.52628 -8.79328
      vertex 367.385 9.52628 -204.838
    endloop
  endfacet
  facet normal -0.279502 0.809017 -0.517079
    outer loop
      vertex 4.70121 9.52628 -8.79328
      vertex 366.5 8.17459 -206.475
      vertex 3.09017 8.51124 -9.51056
    endloop
  endfacet
  facet normal -0.279502 0.809017 -0.517078
    outer loop
      vertex 3.09017 8.51124 -9.51056
      vertex 366.5 8.17459 -206.475
      vertex 2.39077 8.17459 -9.65923
    endloop
  endfacet
  facet normal 0.879696 1.23855e-05 -0.475537
    outer loop
      vertex 374.232 -6.46564 -192.171
      vertex 373.5 -8.17459 -193.525
      vertex 374.778 -4.4741 -191.16
    endloop
  endfacet
  facet normal -0.879707 0 0.475517
    outer loop
      vertex 0 -9.90445 9.54277e-07
      vertex 0.546755 0 1.0115
      vertex 0 0 9.54277e-07
    endloop
  endfacet
  facet normal -0.879707 0 0.475517
    outer loop
      vertex 0.546755 0 1.0115
      vertex 0 -9.90445 9.54277e-07
      vertex 0.546755 -10.9397 1.0115
    endloop
  endfacet
  facet normal 0.353378 0.669131 0.653749
    outer loop
      vertex 374.232 6.46564 -192.171
      vertex 9.13545 7.55074 4.06737
      vertex 8.20333 6.46564 5.68185
    endloop
  endfacet
  facet normal 0.353378 0.66913 0.653749
    outer loop
      vertex 374.232 6.46564 -192.171
      vertex 9.38713 8.17459 3.2928
      vertex 9.13545 7.55074 4.06737
    endloop
  endfacet
  facet normal 0.353377 0.669133 0.653747
    outer loop
      vertex 9.38713 8.17459 3.2928
      vertex 374.232 6.46564 -192.171
      vertex 373.5 8.17459 -193.525
    endloop
  endfacet
  facet normal 0.879682 -9.01074e-05 -0.475563
    outer loop
      vertex 373.5 8.17459 -193.525
      vertex 371.616 10.4616 -197.01
      vertex 372.615 9.52628 -195.162
    endloop
  endfacet
  facet normal 0.879709 8.15619e-06 -0.475513
    outer loop
      vertex 373.5 8.17459 -193.525
      vertex 369.453 10.9397 -201.012
      vertex 371.616 10.4616 -197.01
    endloop
  endfacet
  facet normal 0.879706 0 -0.475518
    outer loop
      vertex 369.453 10.9397 -201.012
      vertex 365.768 -6.46564 -207.829
      vertex 365.768 6.46564 -207.829
    endloop
  endfacet
  facet normal 0.879706 0 -0.475518
    outer loop
      vertex 365.768 -6.46564 -207.829
      vertex 369.453 10.9397 -201.012
      vertex 369.453 -10.9397 -201.012
    endloop
  endfacet
  facet normal -0.879706 -1.42926e-06 0.475517
    outer loop
      vertex 2.61534 -9.52628 4.83839
      vertex 0.546755 -10.9397 1.0115
      vertex 1.61637 -10.4616 2.99029
    endloop
  endfacet
  facet normal 0.279502 -0.809017 0.517078
    outer loop
      vertex 2.61534 -9.52628 4.83839
      vertex 373.5 -8.17459 -193.525
      vertex 3.50001 -8.17459 6.47502
    endloop
  endfacet
  facet normal 0.279503 -0.809016 0.51708
    outer loop
      vertex 373.5 -8.17459 -193.525
      vertex 2.61534 -9.52628 4.83839
      vertex 372.615 -9.52628 -195.162
    endloop
  endfacet
  facet normal 0.452243 -0.309023 0.836649
    outer loop
      vertex 5.11638 -2.28703 9.46531
      vertex 374.778 -4.4741 -191.16
      vertex 375.116 -2.28703 -190.535
    endloop
  endfacet
  facet normal 0.452244 -0.309017 0.836651
    outer loop
      vertex 374.778 -4.4741 -191.16
      vertex 5.11638 -2.28703 9.46531
      vertex 4.77847 -4.4741 8.84017
    endloop
  endfacet
  facet normal -0.879706 -3.14672e-07 0.475518
    outer loop
      vertex 5.11638 -2.28703 9.46531
      vertex 4.23171 -6.46564 7.82867
      vertex 4.77847 -4.4741 8.84017
    endloop
  endfacet
  facet normal 0.879696 7.19274e-06 -0.475537
    outer loop
      vertex 375.116 -2.28703 -190.535
      vertex 374.778 -4.4741 -191.16
      vertex 375.231 0 -190.323
    endloop
  endfacet
  facet normal 0.879707 0 -0.475516
    outer loop
      vertex 375.231 0 -190.323
      vertex 369.453 -10.9397 -201.012
      vertex 369.453 10.9397 -201.012
    endloop
  endfacet
  facet normal -0.879706 2.33998e-07 0.475517
    outer loop
      vertex 4.23171 0 7.82867
      vertex 5.11638 -2.28703 9.46531
      vertex 4.74306 0 8.77465
    endloop
  endfacet
  facet normal -0.879706 0 0.475517
    outer loop
      vertex 5.11638 -2.28703 9.46531
      vertex 4.23171 0 7.82867
      vertex 4.23171 -6.46564 7.82867
    endloop
  endfacet
  facet normal -0.879707 0 0.475517
    outer loop
      vertex 4.74306 0 8.77465
      vertex 5.11638 2.28703 9.46531
      vertex 4.74306 4.05039 8.77465
    endloop
  endfacet
  facet normal -0.879707 0 0.475517
    outer loop
      vertex 5.11638 2.28703 9.46531
      vertex 4.74306 0 8.77465
      vertex 5.11638 -2.28703 9.46531
    endloop
  endfacet
  facet normal -0.879707 0 0.475517
    outer loop
      vertex 0.546755 0 1.0115
      vertex 4.23171 -6.46564 7.82867
      vertex 4.23171 0 7.82867
    endloop
  endfacet
  facet normal -0.879707 0 0.475517
    outer loop
      vertex 4.23171 -6.46564 7.82867
      vertex 0.546755 0 1.0115
      vertex 0.546755 -10.9397 1.0115
    endloop
  endfacet
  facet normal 0.879709 1.31275e-05 -0.475513
    outer loop
      vertex 371.616 10.4616 -197.01
      vertex 369.453 10.9397 -201.012
      vertex 370.547 10.9397 -198.988
    endloop
  endfacet
  facet normal 0.279502 0.809017 0.517078
    outer loop
      vertex 373.5 8.17459 -193.525
      vertex 9.78148 8.81407 2.07912
      vertex 9.38713 8.17459 3.2928
    endloop
  endfacet
  facet normal 0.279502 0.809017 0.517079
    outer loop
      vertex 373.5 8.17459 -193.525
      vertex 9.90565 9.52628 0.897679
      vertex 9.78148 8.81407 2.07912
    endloop
  endfacet
  facet normal 0.279503 0.809016 0.51708
    outer loop
      vertex 9.90565 9.52628 0.897679
      vertex 373.5 8.17459 -193.525
      vertex 372.615 9.52628 -195.162
    endloop
  endfacet
  facet normal -0.41181 0.5 -0.761848
    outer loop
      vertex 0 6.46564 -10.1161
      vertex 365.222 4.4741 -208.84
      vertex 0 4.4741 -11.4231
    endloop
  endfacet
  facet normal -0.411811 0.499997 -0.76185
    outer loop
      vertex 365.222 4.4741 -208.84
      vertex 0 6.46564 -10.1161
      vertex 365.768 6.46564 -207.829
    endloop
  endfacet
  facet normal -0.0988661 0.978147 -0.182902
    outer loop
      vertex 368.384 10.4616 -202.99
      vertex 8.17718 10.9397 -5.72714
      vertex 369.453 10.9397 -201.012
    endloop
  endfacet
  facet normal -0.0988646 0.978148 -0.1829
    outer loop
      vertex 8.17718 10.9397 -5.72714
      vertex 368.384 10.4616 -202.99
      vertex 8.09017 10.9028 -5.87785
    endloop
  endfacet
  facet normal -0.0988654 0.978148 -0.182901
    outer loop
      vertex 8.09017 10.9028 -5.87785
      vertex 368.384 10.4616 -202.99
      vertex 6.69131 10.4709 -7.43145
    endloop
  endfacet
  facet normal -0.0988704 0.978145 -0.18291
    outer loop
      vertex 6.69131 10.4709 -7.43145
      vertex 368.384 10.4616 -202.99
      vertex 6.65226 10.4616 -7.45982
    endloop
  endfacet
  facet normal 0.879709 -3.29514e-05 -0.475512
    outer loop
      vertex 369.453 10.9397 -201.012
      vertex 367.385 9.52628 -204.838
      vertex 368.384 10.4616 -202.99
    endloop
  endfacet
  facet normal 0.879701 -4.91219e-06 -0.475528
    outer loop
      vertex 375.231 0 -190.323
      vertex 373.5 8.17459 -193.525
      vertex 374.778 4.4741 -191.16
    endloop
  endfacet
  facet normal 0.879696 -7.19274e-06 -0.475537
    outer loop
      vertex 375.231 0 -190.323
      vertex 374.778 4.4741 -191.16
      vertex 375.116 2.28703 -190.535
    endloop
  endfacet
  facet normal -0.879707 -2.38063e-07 0.475517
    outer loop
      vertex 0 -10.5661 8.62209e-07
      vertex 0 -10.8189 7.35674e-07
      vertex 0.546755 -10.9397 1.0115
    endloop
  endfacet
  facet normal -0.879707 -7.34848e-08 0.475517
    outer loop
      vertex 0 -10.2759 9.07063e-07
      vertex 0 -10.5661 8.62209e-07
      vertex 0.546755 -10.9397 1.0115
    endloop
  endfacet
  facet normal -0.879707 -6.04415e-08 0.475517
    outer loop
      vertex 0 -9.90445 9.54277e-07
      vertex 0 -10.2759 9.07063e-07
      vertex 0.546755 -10.9397 1.0115
    endloop
  endfacet
  facet normal 0.879682 9.01074e-05 -0.475563
    outer loop
      vertex 372.615 -9.52628 -195.162
      vertex 371.616 -10.4616 -197.01
      vertex 373.5 -8.17459 -193.525
    endloop
  endfacet
  facet normal 0.879701 4.91219e-06 -0.475528
    outer loop
      vertex 374.778 -4.4741 -191.16
      vertex 373.5 -8.17459 -193.525
      vertex 375.231 0 -190.323
    endloop
  endfacet
  facet normal -0.879707 0 0.475516
    outer loop
      vertex 4.74306 4.05039 8.77465
      vertex 4.77847 4.4741 8.84017
      vertex 4.74306 4.6031 8.77465
    endloop
  endfacet
  facet normal -0.879707 -1.59079e-07 0.475516
    outer loop
      vertex 4.77847 4.4741 8.84017
      vertex 4.74306 4.05039 8.77465
      vertex 5.11638 2.28703 9.46531
    endloop
  endfacet
  facet normal 0.411811 0.499997 0.76185
    outer loop
      vertex 8.20333 6.46564 5.68185
      vertex 374.778 4.4741 -191.16
      vertex 374.232 6.46564 -192.171
    endloop
  endfacet
  facet normal 0.41181 0.500001 0.761848
    outer loop
      vertex 8.09017 6.26019 5.87785
      vertex 374.778 4.4741 -191.16
      vertex 8.20333 6.46564 5.68185
    endloop
  endfacet
  facet normal 0.41181 0.5 0.761848
    outer loop
      vertex 6.69131 5.04512 7.43145
      vertex 374.778 4.4741 -191.16
      vertex 8.09017 6.26019 5.87785
    endloop
  endfacet
  facet normal 0.41181 0.5 0.761848
    outer loop
      vertex 4.77847 4.4741 8.84017
      vertex 6.69131 5.04512 7.43145
      vertex 5 4.56578 8.66025
    endloop
  endfacet
  facet normal 0.41181 0.5 0.761848
    outer loop
      vertex 6.69131 5.04512 7.43145
      vertex 4.77847 4.4741 8.84017
      vertex 374.778 4.4741 -191.16
    endloop
  endfacet
  facet normal 0.41181 0.5 0.761848
    outer loop
      vertex 4.77847 4.4741 8.84017
      vertex 5 4.56578 8.66025
      vertex 4.74306 4.6031 8.77465
    endloop
  endfacet
  facet normal 0.879696 -1.23855e-05 -0.475537
    outer loop
      vertex 374.778 4.4741 -191.16
      vertex 373.5 8.17459 -193.525
      vertex 374.232 6.46564 -192.171
    endloop
  endfacet
  facet normal 0.411811 -0.499997 0.76185
    outer loop
      vertex 4.77847 -4.4741 8.84017
      vertex 374.232 -6.46564 -192.171
      vertex 374.778 -4.4741 -191.16
    endloop
  endfacet
  facet normal 0.41181 -0.5 0.761848
    outer loop
      vertex 374.232 -6.46564 -192.171
      vertex 4.77847 -4.4741 8.84017
      vertex 4.23171 -6.46564 7.82867
    endloop
  endfacet
  facet normal 0.879706 1.79158e-07 -0.475518
    outer loop
      vertex 365.768 6.46564 -207.829
      vertex 364.884 2.28703 -209.465
      vertex 365.222 4.4741 -208.84
    endloop
  endfacet
  facet normal -0.19341 0.913546 -0.357808
    outer loop
      vertex 367.385 9.52628 -204.838
      vertex 6.65226 10.4616 -7.45982
      vertex 368.384 10.4616 -202.99
    endloop
  endfacet
  facet normal -0.19341 0.913545 -0.357809
    outer loop
      vertex 6.65226 10.4616 -7.45982
      vertex 367.385 9.52628 -204.838
      vertex 5 9.64164 -8.66025
    endloop
  endfacet
  facet normal -0.19341 0.913545 -0.357809
    outer loop
      vertex 5 9.64164 -8.66025
      vertex 367.385 9.52628 -204.838
      vertex 4.70121 9.52628 -8.79328
    endloop
  endfacet
  facet normal 0.879706 0 -0.475518
    outer loop
      vertex 365.768 6.46564 -207.829
      vertex 364.884 -2.28703 -209.465
      vertex 364.884 2.28703 -209.465
    endloop
  endfacet
  facet normal 0.879706 0 -0.475518
    outer loop
      vertex 364.884 -2.28703 -209.465
      vertex 365.768 6.46564 -207.829
      vertex 365.768 -6.46564 -207.829
    endloop
  endfacet
  facet normal -0.279502 -0.809017 -0.517078
    outer loop
      vertex 0 -8.17459 -8.36692
      vertex 367.385 -9.52628 -204.838
      vertex 0 -9.52628 -6.25208
    endloop
  endfacet
  facet normal -0.279503 -0.809016 -0.51708
    outer loop
      vertex 367.385 -9.52628 -204.838
      vertex 0 -8.17459 -8.36692
      vertex 366.5 -8.17459 -206.475
    endloop
  endfacet
  facet normal -0.879707 -2.89472e-06 0.475517
    outer loop
      vertex 0 -10.8189 7.35674e-07
      vertex 0 -10.9397 0
      vertex 0.546755 -10.9397 1.0115
    endloop
  endfacet
  facet normal -0.472912 -0.104524 -0.874888
    outer loop
      vertex 0 -2.28703 -12.2309
      vertex 364.769 0 -209.677
      vertex 364.884 -2.28703 -209.465
    endloop
  endfacet
  facet normal -0.472912 -0.104529 -0.874887
    outer loop
      vertex 364.769 0 -209.677
      vertex 0 -2.28703 -12.2309
      vertex 0 0 -12.5042
    endloop
  endfacet
  facet normal 0.19341 -0.913545 0.357809
    outer loop
      vertex 1.61637 -10.4616 2.99029
      vertex 372.615 -9.52628 -195.162
      vertex 2.61534 -9.52628 4.83839
    endloop
  endfacet
  facet normal 0.193411 -0.913545 0.35781
    outer loop
      vertex 372.615 -9.52628 -195.162
      vertex 1.61637 -10.4616 2.99029
      vertex 371.616 -10.4616 -197.01
    endloop
  endfacet
  facet normal 0.0988655 -0.978148 0.182901
    outer loop
      vertex 0.546755 -10.9397 1.0115
      vertex 371.616 -10.4616 -197.01
      vertex 1.61637 -10.4616 2.99029
    endloop
  endfacet
  facet normal 0.0988655 -0.978148 0.182901
    outer loop
      vertex 371.616 -10.4616 -197.01
      vertex 0.546755 -10.9397 1.0115
      vertex 370.547 -10.9397 -198.988
    endloop
  endfacet
  facet normal 0.879709 -8.15619e-06 -0.475513
    outer loop
      vertex 371.616 -10.4616 -197.01
      vertex 369.453 -10.9397 -201.012
      vertex 373.5 -8.17459 -193.525
    endloop
  endfacet
  facet normal -0.879706 -9.24567e-07 0.475518
    outer loop
      vertex 4.23171 -6.46564 7.82867
      vertex 2.61534 -9.52628 4.83839
      vertex 3.50001 -8.17459 6.47502
    endloop
  endfacet
  facet normal -0.879706 -8.25936e-08 0.475517
    outer loop
      vertex 4.23171 -6.46564 7.82867
      vertex 0.546755 -10.9397 1.0115
      vertex 2.61534 -9.52628 4.83839
    endloop
  endfacet
  facet normal 0.472912 -0.104524 0.874888
    outer loop
      vertex 5.23069 0 9.67677
      vertex 375.116 -2.28703 -190.535
      vertex 375.231 0 -190.323
    endloop
  endfacet
  facet normal 0.472912 -0.104529 0.874887
    outer loop
      vertex 375.116 -2.28703 -190.535
      vertex 5.23069 0 9.67677
      vertex 5.11638 -2.28703 9.46531
    endloop
  endfacet
  facet normal -0.879706 0 0.475518
    outer loop
      vertex 5.11638 2.28703 9.46531
      vertex 5.11638 -2.28703 9.46531
      vertex 5.23069 0 9.67677
    endloop
  endfacet
  facet normal -0.452244 0.309017 -0.836651
    outer loop
      vertex 0 4.4741 -11.4231
      vertex 364.884 2.28703 -209.465
      vertex 0 2.28703 -12.2309
    endloop
  endfacet
  facet normal -0.452243 0.309023 -0.836649
    outer loop
      vertex 364.884 2.28703 -209.465
      vertex 0 4.4741 -11.4231
      vertex 365.222 4.4741 -208.84
    endloop
  endfacet
  facet normal -0.472912 0.104529 -0.874887
    outer loop
      vertex 0 2.28703 -12.2309
      vertex 364.769 0 -209.677
      vertex 0 0 -12.5042
    endloop
  endfacet
  facet normal -0.472912 0.104524 -0.874888
    outer loop
      vertex 364.769 0 -209.677
      vertex 0 2.28703 -12.2309
      vertex 364.884 2.28703 -209.465
    endloop
  endfacet
  facet normal -0.452243 -0.309023 -0.836649
    outer loop
      vertex 0 -4.4741 -11.4231
      vertex 364.884 -2.28703 -209.465
      vertex 365.222 -4.4741 -208.84
    endloop
  endfacet
  facet normal -0.452244 -0.309017 -0.836651
    outer loop
      vertex 364.884 -2.28703 -209.465
      vertex 0 -4.4741 -11.4231
      vertex 0 -2.28703 -12.2309
    endloop
  endfacet
  facet normal 0.879709 3.29514e-05 -0.475512
    outer loop
      vertex 368.384 -10.4616 -202.99
      vertex 367.385 -9.52628 -204.838
      vertex 369.453 -10.9397 -201.012
    endloop
  endfacet
  facet normal -0.353378 -0.669131 -0.653749
    outer loop
      vertex 0 -6.46564 -10.1161
      vertex 366.5 -8.17459 -206.475
      vertex 0 -8.17459 -8.36692
    endloop
  endfacet
  facet normal -0.353377 -0.669133 -0.653747
    outer loop
      vertex 366.5 -8.17459 -206.475
      vertex 0 -6.46564 -10.1161
      vertex 365.768 -6.46564 -207.829
    endloop
  endfacet
  facet normal 0.879706 -1.79158e-07 -0.475518
    outer loop
      vertex 365.222 -4.4741 -208.84
      vertex 364.884 -2.28703 -209.465
      vertex 365.768 -6.46564 -207.829
    endloop
  endfacet
  facet normal -0.411811 -0.499997 -0.76185
    outer loop
      vertex 0 -6.46564 -10.1161
      vertex 365.222 -4.4741 -208.84
      vertex 365.768 -6.46564 -207.829
    endloop
  endfacet
  facet normal -0.41181 -0.5 -0.761848
    outer loop
      vertex 365.222 -4.4741 -208.84
      vertex 0 -6.46564 -10.1161
      vertex 0 -4.4741 -11.4231
    endloop
  endfacet
  facet normal -0.0988655 -0.978148 -0.182901
    outer loop
      vertex 0 -10.4616 -3.864
      vertex 369.453 -10.9397 -201.012
      vertex 0 -10.9397 -1.30704
    endloop
  endfacet
  facet normal -0.0988661 -0.978147 -0.182902
    outer loop
      vertex 369.453 -10.9397 -201.012
      vertex 0 -10.4616 -3.864
      vertex 368.384 -10.4616 -202.99
    endloop
  endfacet
  facet normal -0.19341 -0.913545 -0.357809
    outer loop
      vertex 0 -9.52628 -6.25208
      vertex 368.384 -10.4616 -202.99
      vertex 0 -10.4616 -3.864
    endloop
  endfacet
  facet normal -0.19341 -0.913546 -0.357808
    outer loop
      vertex 368.384 -10.4616 -202.99
      vertex 0 -9.52628 -6.25208
      vertex 367.385 -9.52628 -204.838
    endloop
  endfacet
  facet normal 0.879702 -1.36791e-05 -0.475525
    outer loop
      vertex 367.385 -9.52628 -204.838
      vertex 365.768 -6.46564 -207.829
      vertex 369.453 -10.9397 -201.012
    endloop
  endfacet
  facet normal 0.866026 0 -0.5
    outer loop
      vertex 8.17718 10.9397 -5.72714
      vertex 9.13545 20 -4.06737
      vertex 9.13545 10.9397 -4.06737
    endloop
  endfacet
  facet normal 0.866026 3.49248e-08 -0.5
    outer loop
      vertex 9.13545 20 -4.06737
      vertex 8.17718 10.9397 -5.72714
      vertex 8.09017 20 -5.87785
    endloop
  endfacet
  facet normal 0.866025 0 -0.500001
    outer loop
      vertex 8.09017 20 -5.87785
      vertex 8.17718 10.9397 -5.72714
      vertex 8.09017 10.9028 -5.87785
    endloop
  endfacet
  facet normal -0.951057 0 -0.309017
    outer loop
      vertex -9.25604 10.9397 -3.69623
      vertex -9.13545 20 -4.06737
      vertex -9.13545 10.9397 -4.06737
    endloop
  endfacet
  facet normal -0.951057 -1.24362e-08 -0.309017
    outer loop
      vertex -9.13545 20 -4.06737
      vertex -9.25604 10.9397 -3.69623
      vertex -9.78148 20 -2.07912
    endloop
  endfacet
  facet normal -0.951057 -0 -0.309017
    outer loop
      vertex -9.78148 20 -2.07912
      vertex -9.25604 10.9397 -3.69623
      vertex -9.78148 10.5843 -2.07912
    endloop
  endfacet
  facet normal 0 1 0
    outer loop
      vertex 6.69131 20 7.43145
      vertex -1.04528 20 9.94522
      vertex 1.04528 20 9.94522
    endloop
  endfacet
  facet normal 0 1 0
    outer loop
      vertex -1.04528 20 9.94522
      vertex 6.69131 20 7.43145
      vertex -6.69131 20 7.43145
    endloop
  endfacet
  facet normal 0.743145 0 -0.669131
    outer loop
      vertex 8.09017 10.9028 -5.87785
      vertex 6.69131 20 -7.43145
      vertex 8.09017 20 -5.87785
    endloop
  endfacet
  facet normal 0.743145 0 -0.669131
    outer loop
      vertex 6.69131 20 -7.43145
      vertex 8.09017 10.9028 -5.87785
      vertex 6.69131 10.4709 -7.43145
    endloop
  endfacet
  facet normal 0.406737 2.65626e-08 -0.913545
    outer loop
      vertex 3.09017 20 -9.51056
      vertex 5 9.64164 -8.66025
      vertex 4.70121 9.52628 -8.79328
    endloop
  endfacet
  facet normal 0.406737 0 -0.913545
    outer loop
      vertex 3.09017 20 -9.51056
      vertex 4.70121 9.52628 -8.79328
      vertex 3.09017 8.51124 -9.51056
    endloop
  endfacet
  facet normal 0.406737 0 -0.913545
    outer loop
      vertex 5 9.64164 -8.66025
      vertex 3.09017 20 -9.51056
      vertex 5 20 -8.66025
    endloop
  endfacet
  facet normal -0.406737 0 -0.913545
    outer loop
      vertex -4.70121 9.52628 -8.79328
      vertex -3.09017 20 -9.51056
      vertex -3.09017 8.51124 -9.51056
    endloop
  endfacet
  facet normal -0.406737 1.03332e-07 -0.913545
    outer loop
      vertex -5 9.64164 -8.66025
      vertex -3.09017 20 -9.51056
      vertex -4.70121 9.52628 -8.79328
    endloop
  endfacet
  facet normal -0.406737 0 -0.913545
    outer loop
      vertex -3.09017 20 -9.51056
      vertex -5 9.64164 -8.66025
      vertex -5 20 -8.66025
    endloop
  endfacet
  facet normal 0.994522 0 0.104529
    outer loop
      vertex 9.78148 20 2.07912
      vertex 10 9.8579 0
      vertex 10 20 0
    endloop
  endfacet
  facet normal 0.994522 9.46092e-08 0.104528
    outer loop
      vertex 9.78148 20 2.07912
      vertex 9.90565 9.52628 0.897679
      vertex 10 9.8579 0
    endloop
  endfacet
  facet normal 0.994522 0 0.104529
    outer loop
      vertex 9.90565 9.52628 0.897679
      vertex 9.78148 20 2.07912
      vertex 9.78148 8.81407 2.07912
    endloop
  endfacet
  facet normal 0 1 0
    outer loop
      vertex 6.69131 20 7.43145
      vertex 3.09017 20 9.51056
      vertex 5 20 8.66025
    endloop
  endfacet
  facet normal 0.587781 -1.14689e-06 -0.80902
    outer loop
      vertex 5 20 -8.66025
      vertex 6.69131 10.4709 -7.43145
      vertex 6.65226 10.4616 -7.45982
    endloop
  endfacet
  facet normal 0.587785 0 -0.809017
    outer loop
      vertex 5 20 -8.66025
      vertex 6.65226 10.4616 -7.45982
      vertex 5 9.64164 -8.66025
    endloop
  endfacet
  facet normal 0.587785 0 -0.809017
    outer loop
      vertex 6.69131 10.4709 -7.43145
      vertex 5 20 -8.66025
      vertex 6.69131 20 -7.43145
    endloop
  endfacet
  facet normal 0 0 -1
    outer loop
      vertex -1.04528 7.18461 -9.94522
      vertex 1.04528 7.18461 -9.94522
      vertex 0 6.63258 -9.94522
    endloop
  endfacet
  facet normal 0 0 -1
    outer loop
      vertex 1.04528 7.18461 -9.94522
      vertex -1.04528 7.18461 -9.94522
      vertex 1.04528 20 -9.94522
    endloop
  endfacet
  facet normal -0 0 -1
    outer loop
      vertex 1.04528 20 -9.94522
      vertex -1.04528 7.18461 -9.94522
      vertex -1.04528 20 -9.94522
    endloop
  endfacet
  facet normal -0.994522 0 -0.104529
    outer loop
      vertex -9.78148 10.5843 -2.07912
      vertex -10 20 0
      vertex -9.78148 20 -2.07912
    endloop
  endfacet
  facet normal -0.994522 1.66726e-08 -0.104529
    outer loop
      vertex -9.8467 10.4616 -1.45854
      vertex -10 20 0
      vertex -9.78148 10.5843 -2.07912
    endloop
  endfacet
  facet normal -0.994522 -0 -0.104529
    outer loop
      vertex -10 20 0
      vertex -9.8467 10.4616 -1.45854
      vertex -10 9.8579 0
    endloop
  endfacet
  facet normal -0.866026 3.49248e-08 -0.5
    outer loop
      vertex -8.09017 20 -5.87785
      vertex -8.17718 10.9397 -5.72714
      vertex -9.13545 20 -4.06737
    endloop
  endfacet
  facet normal -0.866025 0 -0.500001
    outer loop
      vertex -8.17718 10.9397 -5.72714
      vertex -8.09017 20 -5.87785
      vertex -8.09017 10.9028 -5.87785
    endloop
  endfacet
  facet normal -0.866026 -0 -0.5
    outer loop
      vertex -9.13545 20 -4.06737
      vertex -8.17718 10.9397 -5.72714
      vertex -9.13545 10.9397 -4.06737
    endloop
  endfacet
  facet normal -0.587785 0 -0.809017
    outer loop
      vertex -6.65226 10.4616 -7.45982
      vertex -5 20 -8.66025
      vertex -5 9.64164 -8.66025
    endloop
  endfacet
  facet normal -0.587781 -1.09044e-06 -0.80902
    outer loop
      vertex -6.69131 10.4709 -7.43145
      vertex -5 20 -8.66025
      vertex -6.65226 10.4616 -7.45982
    endloop
  endfacet
  facet normal -0.587785 0 -0.809017
    outer loop
      vertex -5 20 -8.66025
      vertex -6.69131 10.4709 -7.43145
      vertex -6.69131 20 -7.43145
    endloop
  endfacet
  facet normal -0.207912 0 -0.978148
    outer loop
      vertex -2.39077 8.17459 -9.65923
      vertex -1.04528 20 -9.94522
      vertex -1.04528 7.18461 -9.94522
    endloop
  endfacet
  facet normal -0.207911 -4.488e-08 -0.978148
    outer loop
      vertex -3.09017 8.51124 -9.51056
      vertex -1.04528 20 -9.94522
      vertex -2.39077 8.17459 -9.65923
    endloop
  endfacet
  facet normal -0.207911 0 -0.978148
    outer loop
      vertex -1.04528 20 -9.94522
      vertex -3.09017 8.51124 -9.51056
      vertex -3.09017 20 -9.51056
    endloop
  endfacet
  facet normal -0.743145 0 -0.669131
    outer loop
      vertex -6.69131 20 -7.43145
      vertex -8.09017 10.9028 -5.87785
      vertex -8.09017 20 -5.87785
    endloop
  endfacet
  facet normal -0.743145 0 -0.669131
    outer loop
      vertex -8.09017 10.9028 -5.87785
      vertex -6.69131 20 -7.43145
      vertex -6.69131 10.4709 -7.43145
    endloop
  endfacet
  facet normal 0.994522 0 -0.104529
    outer loop
      vertex 10 20 0
      vertex 9.78148 10.5843 -2.07912
      vertex 9.78148 20 -2.07912
    endloop
  endfacet
  facet normal 0.994522 1.66726e-08 -0.104529
    outer loop
      vertex 10 20 0
      vertex 9.8467 10.4616 -1.45854
      vertex 9.78148 10.5843 -2.07912
    endloop
  endfacet
  facet normal 0.994522 0 -0.104529
    outer loop
      vertex 9.8467 10.4616 -1.45854
      vertex 10 20 0
      vertex 10 9.8579 0
    endloop
  endfacet
  facet normal -0.587785 0 0.809017
    outer loop
      vertex -6.69131 5.04512 7.43145
      vertex -5 20 8.66025
      vertex -6.69131 20 7.43145
    endloop
  endfacet
  facet normal -0.587785 0 0.809017
    outer loop
      vertex -5 20 8.66025
      vertex -6.69131 5.04512 7.43145
      vertex -5 4.56578 8.66025
    endloop
  endfacet
  facet normal 0.951057 -1.24362e-08 -0.309017
    outer loop
      vertex 9.78148 20 -2.07912
      vertex 9.25604 10.9397 -3.69623
      vertex 9.13545 20 -4.06737
    endloop
  endfacet
  facet normal 0.951057 0 -0.309017
    outer loop
      vertex 9.25604 10.9397 -3.69623
      vertex 9.78148 20 -2.07912
      vertex 9.78148 10.5843 -2.07912
    endloop
  endfacet
  facet normal 0.951057 0 -0.309017
    outer loop
      vertex 9.13545 20 -4.06737
      vertex 9.25604 10.9397 -3.69623
      vertex 9.13545 10.9397 -4.06737
    endloop
  endfacet
  facet normal 0.207911 -4.488e-08 -0.978148
    outer loop
      vertex 1.04528 20 -9.94522
      vertex 3.09017 8.51124 -9.51056
      vertex 2.39077 8.17459 -9.65923
    endloop
  endfacet
  facet normal 0.207912 0 -0.978148
    outer loop
      vertex 1.04528 20 -9.94522
      vertex 2.39077 8.17459 -9.65923
      vertex 1.04528 7.18461 -9.94522
    endloop
  endfacet
  facet normal 0.207911 0 -0.978148
    outer loop
      vertex 3.09017 8.51124 -9.51056
      vertex 1.04528 20 -9.94522
      vertex 3.09017 20 -9.51056
    endloop
  endfacet
  facet normal 0 1 0
    outer loop
      vertex 8.09017 20 5.87785
      vertex -6.69131 20 7.43145
      vertex 6.69131 20 7.43145
    endloop
  endfacet
  facet normal 0 1 0
    outer loop
      vertex 8.09017 20 5.87785
      vertex -8.09017 20 5.87785
      vertex -6.69131 20 7.43145
    endloop
  endfacet
  facet normal 0 1 0
    outer loop
      vertex 9.13545 20 4.06737
      vertex -8.09017 20 5.87785
      vertex 8.09017 20 5.87785
    endloop
  endfacet
  facet normal 0 1 0
    outer loop
      vertex 9.13545 20 4.06737
      vertex -9.13545 20 4.06737
      vertex -8.09017 20 5.87785
    endloop
  endfacet
  facet normal 0 1 0
    outer loop
      vertex 9.78148 20 2.07912
      vertex -9.13545 20 4.06737
      vertex 9.13545 20 4.06737
    endloop
  endfacet
  facet normal 0 1 0
    outer loop
      vertex 9.78148 20 2.07912
      vertex -9.78148 20 2.07912
      vertex -9.13545 20 4.06737
    endloop
  endfacet
  facet normal 0 1 0
    outer loop
      vertex 10 20 0
      vertex -9.78148 20 2.07912
      vertex 9.78148 20 2.07912
    endloop
  endfacet
  facet normal 0 1 0
    outer loop
      vertex 10 20 0
      vertex -10 20 0
      vertex -9.78148 20 2.07912
    endloop
  endfacet
  facet normal 0 1 -0
    outer loop
      vertex 9.78148 20 -2.07912
      vertex -10 20 0
      vertex 10 20 0
    endloop
  endfacet
  facet normal 0 1 0
    outer loop
      vertex 9.78148 20 -2.07912
      vertex -9.78148 20 -2.07912
      vertex -10 20 0
    endloop
  endfacet
  facet normal 0 1 -0
    outer loop
      vertex 9.13545 20 -4.06737
      vertex -9.78148 20 -2.07912
      vertex 9.78148 20 -2.07912
    endloop
  endfacet
  facet normal 0 1 0
    outer loop
      vertex 9.13545 20 -4.06737
      vertex -9.13545 20 -4.06737
      vertex -9.78148 20 -2.07912
    endloop
  endfacet
  facet normal 0 1 -0
    outer loop
      vertex 8.09017 20 -5.87785
      vertex -9.13545 20 -4.06737
      vertex 9.13545 20 -4.06737
    endloop
  endfacet
  facet normal 0 1 0
    outer loop
      vertex 8.09017 20 -5.87785
      vertex -8.09017 20 -5.87785
      vertex -9.13545 20 -4.06737
    endloop
  endfacet
  facet normal 0 1 -0
    outer loop
      vertex 6.69131 20 -7.43145
      vertex -8.09017 20 -5.87785
      vertex 8.09017 20 -5.87785
    endloop
  endfacet
  facet normal 0 1 0
    outer loop
      vertex 6.69131 20 -7.43145
      vertex -6.69131 20 -7.43145
      vertex -8.09017 20 -5.87785
    endloop
  endfacet
  facet normal 0 1 -0
    outer loop
      vertex 5 20 -8.66025
      vertex -6.69131 20 -7.43145
      vertex 6.69131 20 -7.43145
    endloop
  endfacet
  facet normal 0 1 0
    outer loop
      vertex 5 20 -8.66025
      vertex -5 20 -8.66025
      vertex -6.69131 20 -7.43145
    endloop
  endfacet
  facet normal 0 1 -0
    outer loop
      vertex 3.09017 20 -9.51056
      vertex -5 20 -8.66025
      vertex 5 20 -8.66025
    endloop
  endfacet
  facet normal 0 1 0
    outer loop
      vertex 3.09017 20 -9.51056
      vertex -3.09017 20 -9.51056
      vertex -5 20 -8.66025
    endloop
  endfacet
  facet normal 0 1 -0
    outer loop
      vertex 1.04528 20 -9.94522
      vertex -3.09017 20 -9.51056
      vertex 3.09017 20 -9.51056
    endloop
  endfacet
  facet normal 0 1 0
    outer loop
      vertex -3.09017 20 -9.51056
      vertex 1.04528 20 -9.94522
      vertex -1.04528 20 -9.94522
    endloop
  endfacet
  facet normal 0 -1 0
    outer loop
      vertex -4.23171 0 7.82867
      vertex -1.04528 0 9.94522
      vertex -3.09017 0 9.51056
    endloop
  endfacet
  facet normal 0 -1 0
    outer loop
      vertex -0.546755 0 1.0115
      vertex -1.04528 0 9.94522
      vertex -4.23171 0 7.82867
    endloop
  endfacet
  facet normal 0 -1 0
    outer loop
      vertex -4.23171 0 7.82867
      vertex -3.09017 0 9.51056
      vertex -4.74306 0 8.77465
    endloop
  endfacet
  facet normal 0 -1 0
    outer loop
      vertex -1.04528 0 9.94522
      vertex -0.546755 0 1.0115
      vertex 1.04528 0 9.94522
    endloop
  endfacet
  facet normal 0 -1 0
    outer loop
      vertex 1.04528 0 9.94522
      vertex 4.23171 0 7.82867
      vertex 3.09017 0 9.51056
    endloop
  endfacet
  facet normal 0 -1 0
    outer loop
      vertex 3.09017 0 9.51056
      vertex 4.23171 0 7.82867
      vertex 4.74306 0 8.77465
    endloop
  endfacet
  facet normal 0 -1 0
    outer loop
      vertex 0.546755 0 1.0115
      vertex 1.04528 0 9.94522
      vertex -0.546755 0 1.0115
    endloop
  endfacet
  facet normal 0 -1 -0
    outer loop
      vertex 1.04528 0 9.94522
      vertex 0.546755 0 1.0115
      vertex 4.23171 0 7.82867
    endloop
  endfacet
  facet normal -0 -1 0
    outer loop
      vertex 0.546755 0 1.0115
      vertex -0.546755 0 1.0115
      vertex 0 0 9.54277e-07
    endloop
  endfacet
  facet normal -0.743145 0 0.669131
    outer loop
      vertex -8.09017 6.26019 5.87785
      vertex -6.69131 20 7.43145
      vertex -8.09017 20 5.87785
    endloop
  endfacet
  facet normal -0.743145 0 0.669131
    outer loop
      vertex -6.69131 20 7.43145
      vertex -8.09017 6.26019 5.87785
      vertex -6.69131 5.04512 7.43145
    endloop
  endfacet
  facet normal -0.866026 0 0.5
    outer loop
      vertex -9.13545 7.55074 4.06737
      vertex -8.09017 20 5.87785
      vertex -9.13545 20 4.06737
    endloop
  endfacet
  facet normal -0.866026 -1.552e-08 0.5
    outer loop
      vertex -8.20333 6.46564 5.68185
      vertex -8.09017 20 5.87785
      vertex -9.13545 7.55074 4.06737
    endloop
  endfacet
  facet normal -0.866026 0 0.499999
    outer loop
      vertex -8.09017 20 5.87785
      vertex -8.20333 6.46564 5.68185
      vertex -8.09017 6.26019 5.87785
    endloop
  endfacet
  facet normal -0 0 1
    outer loop
      vertex -1.04528 20 9.94522
      vertex 1.04528 0 9.94522
      vertex 1.04528 20 9.94522
    endloop
  endfacet
  facet normal 0 0 1
    outer loop
      vertex 1.04528 0 9.94522
      vertex -1.04528 20 9.94522
      vertex -1.04528 0 9.94522
    endloop
  endfacet
  facet normal 0.406736 0 0.913546
    outer loop
      vertex 5 20 8.66025
      vertex 4.74306 4.6031 8.77465
      vertex 5 4.56578 8.66025
    endloop
  endfacet
  facet normal 0.406737 0 0.913545
    outer loop
      vertex 3.09017 0 9.51056
      vertex 4.74306 4.05039 8.77465
      vertex 4.74306 4.6031 8.77465
    endloop
  endfacet
  facet normal 0.406737 -1.14973e-08 0.913545
    outer loop
      vertex 3.09017 20 9.51056
      vertex 4.74306 4.6031 8.77465
      vertex 5 20 8.66025
    endloop
  endfacet
  facet normal 0.406737 -0 0.913545
    outer loop
      vertex 3.09017 0 9.51056
      vertex 4.74306 4.6031 8.77465
      vertex 3.09017 20 9.51056
    endloop
  endfacet
  facet normal 0.406737 0 0.913545
    outer loop
      vertex 4.74306 4.05039 8.77465
      vertex 3.09017 0 9.51056
      vertex 4.74306 0 8.77465
    endloop
  endfacet
  facet normal 0.866026 0 0.5
    outer loop
      vertex 8.09017 20 5.87785
      vertex 9.13545 7.55074 4.06737
      vertex 9.13545 20 4.06737
    endloop
  endfacet
  facet normal 0.866026 -1.552e-08 0.5
    outer loop
      vertex 8.09017 20 5.87785
      vertex 8.20333 6.46564 5.68185
      vertex 9.13545 7.55074 4.06737
    endloop
  endfacet
  facet normal 0.866026 0 0.499999
    outer loop
      vertex 8.20333 6.46564 5.68185
      vertex 8.09017 20 5.87785
      vertex 8.09017 6.26019 5.87785
    endloop
  endfacet
  facet normal 0.587785 0 0.809017
    outer loop
      vertex 5 20 8.66025
      vertex 6.69131 5.04512 7.43145
      vertex 6.69131 20 7.43145
    endloop
  endfacet
  facet normal 0.587785 0 0.809017
    outer loop
      vertex 6.69131 5.04512 7.43145
      vertex 5 20 8.66025
      vertex 5 4.56578 8.66025
    endloop
  endfacet
  facet normal -0.951057 0 0.309017
    outer loop
      vertex -9.78148 8.81407 2.07912
      vertex -9.13545 20 4.06737
      vertex -9.78148 20 2.07912
    endloop
  endfacet
  facet normal -0.951057 3.34821e-08 0.309017
    outer loop
      vertex -9.38713 8.17459 3.2928
      vertex -9.13545 20 4.06737
      vertex -9.78148 8.81407 2.07912
    endloop
  endfacet
  facet normal -0.951056 0 0.309017
    outer loop
      vertex -9.13545 20 4.06737
      vertex -9.38713 8.17459 3.2928
      vertex -9.13545 7.55074 4.06737
    endloop
  endfacet
  facet normal -0.994522 0 0.104529
    outer loop
      vertex -10 9.8579 0
      vertex -9.78148 20 2.07912
      vertex -10 20 0
    endloop
  endfacet
  facet normal -0.994522 9.46092e-08 0.104528
    outer loop
      vertex -9.90565 9.52628 0.897679
      vertex -9.78148 20 2.07912
      vertex -10 9.8579 0
    endloop
  endfacet
  facet normal -0.994522 0 0.104529
    outer loop
      vertex -9.78148 20 2.07912
      vertex -9.90565 9.52628 0.897679
      vertex -9.78148 8.81407 2.07912
    endloop
  endfacet
  facet normal -0.207911 0 0.978148
    outer loop
      vertex -3.09017 20 9.51056
      vertex -1.04528 0 9.94522
      vertex -1.04528 20 9.94522
    endloop
  endfacet
  facet normal -0.207911 0 0.978148
    outer loop
      vertex -1.04528 0 9.94522
      vertex -3.09017 20 9.51056
      vertex -3.09017 0 9.51056
    endloop
  endfacet
  facet normal 0 1 0
    outer loop
      vertex -1.04528 20 9.94522
      vertex -6.69131 20 7.43145
      vertex -3.09017 20 9.51056
    endloop
  endfacet
  facet normal 0.207911 0 0.978148
    outer loop
      vertex 1.04528 20 9.94522
      vertex 3.09017 0 9.51056
      vertex 3.09017 20 9.51056
    endloop
  endfacet
  facet normal 0.207911 0 0.978148
    outer loop
      vertex 3.09017 0 9.51056
      vertex 1.04528 20 9.94522
      vertex 1.04528 0 9.94522
    endloop
  endfacet
  facet normal 0 1 0
    outer loop
      vertex 6.69131 20 7.43145
      vertex 1.04528 20 9.94522
      vertex 3.09017 20 9.51056
    endloop
  endfacet
  facet normal 0.951057 0 0.309017
    outer loop
      vertex 9.13545 20 4.06737
      vertex 9.78148 8.81407 2.07912
      vertex 9.78148 20 2.07912
    endloop
  endfacet
  facet normal 0.951057 3.34821e-08 0.309017
    outer loop
      vertex 9.13545 20 4.06737
      vertex 9.38713 8.17459 3.2928
      vertex 9.78148 8.81407 2.07912
    endloop
  endfacet
  facet normal 0.951056 0 0.309017
    outer loop
      vertex 9.38713 8.17459 3.2928
      vertex 9.13545 20 4.06737
      vertex 9.13545 7.55074 4.06737
    endloop
  endfacet
  facet normal 0.743145 0 0.669131
    outer loop
      vertex 6.69131 20 7.43145
      vertex 8.09017 6.26019 5.87785
      vertex 8.09017 20 5.87785
    endloop
  endfacet
  facet normal 0.743145 0 0.669131
    outer loop
      vertex 8.09017 6.26019 5.87785
      vertex 6.69131 20 7.43145
      vertex 6.69131 5.04512 7.43145
    endloop
  endfacet
  facet normal -0.406737 0 0.913545
    outer loop
      vertex -3.09017 20 9.51056
      vertex -4.74306 4.6031 8.77465
      vertex -3.09017 0 9.51056
    endloop
  endfacet
  facet normal -0.406737 -1.14973e-08 0.913545
    outer loop
      vertex -5 20 8.66025
      vertex -4.74306 4.6031 8.77465
      vertex -3.09017 20 9.51056
    endloop
  endfacet
  facet normal -0.406736 0 0.913546
    outer loop
      vertex -4.74306 4.6031 8.77465
      vertex -5 20 8.66025
      vertex -5 4.56578 8.66025
    endloop
  endfacet
  facet normal -0.406737 0 0.913545
    outer loop
      vertex -4.74306 4.05039 8.77465
      vertex -3.09017 0 9.51056
      vertex -4.74306 4.6031 8.77465
    endloop
  endfacet
  facet normal -0.406737 0 0.913545
    outer loop
      vertex -3.09017 0 9.51056
      vertex -4.74306 4.05039 8.77465
      vertex -4.74306 0 8.77465
    endloop
  endfacet
  facet normal 0 1 0
    outer loop
      vertex -3.09017 20 9.51056
      vertex -6.69131 20 7.43145
      vertex -5 20 8.66025
    endloop
  endfacet
  facet normal -0.475517 0 0.879707
    outer loop
      vertex -268.929 20 -128.316
      vertex -233.741 -20 -109.295
      vertex -233.741 20 -109.295
    endloop
  endfacet
  facet normal -0.475517 0 0.879707
    outer loop
      vertex -233.741 -20 -109.295
      vertex -268.929 20 -128.316
      vertex -268.929 -20 -128.316
    endloop
  endfacet
  facet normal 0.879706 1.20426e-06 0.475517
    outer loop
      vertex -233.741 20 -109.295
      vertex -227.155 10.9397 -121.479
      vertex -219.475 20 -135.686
    endloop
  endfacet
  facet normal 0.879705 -3.16179e-06 0.47552
    outer loop
      vertex -233.741 20 -109.295
      vertex -228.224 10.4616 -119.5
      vertex -227.155 10.9397 -121.479
    endloop
  endfacet
  facet normal 0.879708 3.61546e-06 0.475515
    outer loop
      vertex -233.741 20 -109.295
      vertex -229.223 9.52628 -117.652
      vertex -228.224 10.4616 -119.5
    endloop
  endfacet
  facet normal 0.879705 -9.12439e-07 0.475519
    outer loop
      vertex -233.741 20 -109.295
      vertex -230.108 8.17459 -116.016
      vertex -229.223 9.52628 -117.652
    endloop
  endfacet
  facet normal 0.879706 3.04295e-07 0.475518
    outer loop
      vertex -233.741 20 -109.295
      vertex -230.84 6.46564 -114.662
      vertex -230.108 8.17459 -116.016
    endloop
  endfacet
  facet normal 0.879707 7.9532e-07 0.475517
    outer loop
      vertex -233.741 20 -109.295
      vertex -231.386 4.4741 -113.651
      vertex -230.84 6.46564 -114.662
    endloop
  endfacet
  facet normal 0.879703 -1.48917e-06 0.475523
    outer loop
      vertex -233.741 20 -109.295
      vertex -231.724 2.28703 -113.025
      vertex -231.386 4.4741 -113.651
    endloop
  endfacet
  facet normal 0.879707 3.61941e-07 0.475516
    outer loop
      vertex -233.741 20 -109.295
      vertex -231.839 0 -112.814
      vertex -231.724 2.28703 -113.025
    endloop
  endfacet
  facet normal 0.879706 -0 0.475518
    outer loop
      vertex -233.741 -20 -109.295
      vertex -231.839 0 -112.814
      vertex -233.741 20 -109.295
    endloop
  endfacet
  facet normal 0.879707 -4.37554e-06 0.475515
    outer loop
      vertex -227.155 -10.9397 -121.479
      vertex -233.741 -20 -109.295
      vertex -226.061 -10.9397 -123.502
    endloop
  endfacet
  facet normal 0.879705 3.16179e-06 0.47552
    outer loop
      vertex -228.224 -10.4616 -119.5
      vertex -233.741 -20 -109.295
      vertex -227.155 -10.9397 -121.479
    endloop
  endfacet
  facet normal 0.879708 -3.61546e-06 0.475515
    outer loop
      vertex -229.223 -9.52628 -117.652
      vertex -233.741 -20 -109.295
      vertex -228.224 -10.4616 -119.5
    endloop
  endfacet
  facet normal 0.879705 9.12439e-07 0.475519
    outer loop
      vertex -230.108 -8.17459 -116.016
      vertex -233.741 -20 -109.295
      vertex -229.223 -9.52628 -117.652
    endloop
  endfacet
  facet normal 0.879706 -3.04295e-07 0.475518
    outer loop
      vertex -230.84 -6.46564 -114.662
      vertex -233.741 -20 -109.295
      vertex -230.108 -8.17459 -116.016
    endloop
  endfacet
  facet normal 0.879707 -7.9532e-07 0.475517
    outer loop
      vertex -231.386 -4.4741 -113.651
      vertex -233.741 -20 -109.295
      vertex -230.84 -6.46564 -114.662
    endloop
  endfacet
  facet normal 0.879703 1.48917e-06 0.475523
    outer loop
      vertex -231.724 -2.28703 -113.025
      vertex -233.741 -20 -109.295
      vertex -231.386 -4.4741 -113.651
    endloop
  endfacet
  facet normal 0.879707 -3.61941e-07 0.475516
    outer loop
      vertex -231.839 0 -112.814
      vertex -233.741 -20 -109.295
      vertex -231.724 -2.28703 -113.025
    endloop
  endfacet
  facet normal 0.879707 -2.49356e-06 0.475515
    outer loop
      vertex -226.061 10.9397 -123.502
      vertex -219.475 20 -135.686
      vertex -227.155 10.9397 -121.479
    endloop
  endfacet
  facet normal 0.879707 -2.303e-06 0.475515
    outer loop
      vertex -224.991 10.4616 -125.481
      vertex -219.475 20 -135.686
      vertex -226.061 10.9397 -123.502
    endloop
  endfacet
  facet normal 0.879706 1.67257e-06 0.475518
    outer loop
      vertex -223.992 9.52628 -127.329
      vertex -219.475 20 -135.686
      vertex -224.991 10.4616 -125.481
    endloop
  endfacet
  facet normal 0.879706 1.89375e-06 0.475519
    outer loop
      vertex -223.108 8.17459 -128.966
      vertex -219.475 20 -135.686
      vertex -223.992 9.52628 -127.329
    endloop
  endfacet
  facet normal 0.879709 -2.74607e-06 0.475512
    outer loop
      vertex -222.376 6.46564 -130.319
      vertex -219.475 20 -135.686
      vertex -223.108 8.17459 -128.966
    endloop
  endfacet
  facet normal 0.879703 3.10904e-06 0.475524
    outer loop
      vertex -221.829 4.4741 -131.331
      vertex -219.475 20 -135.686
      vertex -222.376 6.46564 -130.319
    endloop
  endfacet
  facet normal 0.879711 -2.52189e-06 0.475508
    outer loop
      vertex -221.491 2.28703 -131.956
      vertex -219.475 20 -135.686
      vertex -221.829 4.4741 -131.331
    endloop
  endfacet
  facet normal 0.879705 7.40389e-07 0.47552
    outer loop
      vertex -221.377 0 -132.167
      vertex -219.475 20 -135.686
      vertex -221.491 2.28703 -131.956
    endloop
  endfacet
  facet normal 0.879705 -7.40389e-07 0.47552
    outer loop
      vertex -219.475 -20 -135.686
      vertex -221.377 0 -132.167
      vertex -221.491 -2.28703 -131.956
    endloop
  endfacet
  facet normal 0.879706 -6.77714e-07 0.475517
    outer loop
      vertex -219.475 -20 -135.686
      vertex -226.061 -10.9397 -123.502
      vertex -233.741 -20 -109.295
    endloop
  endfacet
  facet normal 0.879707 2.303e-06 0.475515
    outer loop
      vertex -226.061 -10.9397 -123.502
      vertex -219.475 -20 -135.686
      vertex -224.991 -10.4616 -125.481
    endloop
  endfacet
  facet normal 0.879707 0 0.475517
    outer loop
      vertex -221.377 0 -132.167
      vertex -219.475 -20 -135.686
      vertex -219.475 20 -135.686
    endloop
  endfacet
  facet normal 0.879711 2.52189e-06 0.475508
    outer loop
      vertex -221.829 -4.4741 -131.331
      vertex -219.475 -20 -135.686
      vertex -221.491 -2.28703 -131.956
    endloop
  endfacet
  facet normal 0.879703 -3.10904e-06 0.475524
    outer loop
      vertex -222.376 -6.46564 -130.319
      vertex -219.475 -20 -135.686
      vertex -221.829 -4.4741 -131.331
    endloop
  endfacet
  facet normal 0.879709 2.74607e-06 0.475512
    outer loop
      vertex -223.108 -8.17459 -128.966
      vertex -219.475 -20 -135.686
      vertex -222.376 -6.46564 -130.319
    endloop
  endfacet
  facet normal 0.879706 -1.89375e-06 0.475519
    outer loop
      vertex -223.992 -9.52628 -127.329
      vertex -219.475 -20 -135.686
      vertex -223.108 -8.17459 -128.966
    endloop
  endfacet
  facet normal 0.879706 -1.67257e-06 0.475518
    outer loop
      vertex -224.991 -10.4616 -125.481
      vertex -219.475 -20 -135.686
      vertex -223.992 -9.52628 -127.329
    endloop
  endfacet
  facet normal -0.879706 -1.94371e-06 -0.475517
    outer loop
      vertex -254.663 20 -154.707
      vertex -261.249 10.9397 -142.523
      vertex -268.929 20 -128.316
    endloop
  endfacet
  facet normal -0.879707 1.48701e-06 -0.475515
    outer loop
      vertex -254.663 20 -154.707
      vertex -260.18 10.4616 -144.502
      vertex -261.249 10.9397 -142.523
    endloop
  endfacet
  facet normal -0.879708 2.70253e-06 -0.475514
    outer loop
      vertex -254.663 20 -154.707
      vertex -259.181 9.52628 -146.35
      vertex -260.18 10.4616 -144.502
    endloop
  endfacet
  facet normal -0.879706 -6.1881e-07 -0.475518
    outer loop
      vertex -254.663 20 -154.707
      vertex -258.296 8.17459 -147.986
      vertex -259.181 9.52628 -146.35
    endloop
  endfacet
  facet normal -0.879708 1.32964e-06 -0.475515
    outer loop
      vertex -254.663 20 -154.707
      vertex -257.564 6.46564 -149.34
      vertex -258.296 8.17459 -147.986
    endloop
  endfacet
  facet normal -0.879708 1.44348e-06 -0.475515
    outer loop
      vertex -254.663 20 -154.707
      vertex -257.018 4.4741 -150.352
      vertex -257.564 6.46564 -149.34
    endloop
  endfacet
  facet normal -0.879703 -1.48917e-06 -0.475523
    outer loop
      vertex -254.663 20 -154.707
      vertex -256.68 2.28703 -150.977
      vertex -257.018 4.4741 -150.352
    endloop
  endfacet
  facet normal -0.879697 -4.81898e-06 -0.475535
    outer loop
      vertex -254.663 20 -154.707
      vertex -256.565 0 -151.188
      vertex -256.68 2.28703 -150.977
    endloop
  endfacet
  facet normal -0.879708 0 -0.475514
    outer loop
      vertex -254.663 -20 -154.707
      vertex -256.565 0 -151.188
      vertex -254.663 20 -154.707
    endloop
  endfacet
  facet normal -0.879702 1.64337e-05 -0.475526
    outer loop
      vertex -261.249 -10.9397 -142.523
      vertex -254.663 -20 -154.707
      vertex -262.343 -10.9397 -140.5
    endloop
  endfacet
  facet normal -0.879707 -1.48701e-06 -0.475515
    outer loop
      vertex -260.18 -10.4616 -144.502
      vertex -254.663 -20 -154.707
      vertex -261.249 -10.9397 -142.523
    endloop
  endfacet
  facet normal -0.879708 -2.70253e-06 -0.475514
    outer loop
      vertex -259.181 -9.52628 -146.35
      vertex -254.663 -20 -154.707
      vertex -260.18 -10.4616 -144.502
    endloop
  endfacet
  facet normal -0.879706 6.1881e-07 -0.475518
    outer loop
      vertex -258.296 -8.17459 -147.986
      vertex -254.663 -20 -154.707
      vertex -259.181 -9.52628 -146.35
    endloop
  endfacet
  facet normal -0.879708 -1.32964e-06 -0.475515
    outer loop
      vertex -257.564 -6.46564 -149.34
      vertex -254.663 -20 -154.707
      vertex -258.296 -8.17459 -147.986
    endloop
  endfacet
  facet normal -0.879708 -1.44348e-06 -0.475515
    outer loop
      vertex -257.018 -4.4741 -150.352
      vertex -254.663 -20 -154.707
      vertex -257.564 -6.46564 -149.34
    endloop
  endfacet
  facet normal -0.879703 1.48917e-06 -0.475523
    outer loop
      vertex -256.68 -2.28703 -150.977
      vertex -254.663 -20 -154.707
      vertex -257.018 -4.4741 -150.352
    endloop
  endfacet
  facet normal -0.879697 4.81898e-06 -0.475535
    outer loop
      vertex -256.565 0 -151.188
      vertex -254.663 -20 -154.707
      vertex -256.68 -2.28703 -150.977
    endloop
  endfacet
  facet normal -0.879702 1.49521e-05 -0.475526
    outer loop
      vertex -262.343 10.9397 -140.5
      vertex -268.929 20 -128.316
      vertex -261.249 10.9397 -142.523
    endloop
  endfacet
  facet normal -0.879707 -2.60522e-06 -0.475516
    outer loop
      vertex -263.412 10.4616 -138.521
      vertex -268.929 20 -128.316
      vertex -262.343 10.9397 -140.5
    endloop
  endfacet
  facet normal -0.879708 -3.61546e-06 -0.475515
    outer loop
      vertex -264.411 9.52628 -136.673
      vertex -268.929 20 -128.316
      vertex -263.412 10.4616 -138.521
    endloop
  endfacet
  facet normal -0.879706 -1.53714e-07 -0.475518
    outer loop
      vertex -265.296 8.17459 -135.036
      vertex -268.929 20 -128.316
      vertex -264.411 9.52628 -136.673
    endloop
  endfacet
  facet normal -0.879707 -1.99056e-06 -0.475516
    outer loop
      vertex -266.028 6.46564 -133.683
      vertex -268.929 20 -128.316
      vertex -265.296 8.17459 -135.036
    endloop
  endfacet
  facet normal -0.879707 -2.00043e-06 -0.475516
    outer loop
      vertex -266.575 4.4741 -132.671
      vertex -268.929 20 -128.316
      vertex -266.028 6.46564 -133.683
    endloop
  endfacet
  facet normal -0.879703 1.05283e-06 -0.475524
    outer loop
      vertex -266.912 2.28703 -132.046
      vertex -268.929 20 -128.316
      vertex -266.575 4.4741 -132.671
    endloop
  endfacet
  facet normal -0.8797 2.38307e-06 -0.475529
    outer loop
      vertex -267.027 0 -131.835
      vertex -268.929 20 -128.316
      vertex -266.912 2.28703 -132.046
    endloop
  endfacet
  facet normal -0.8797 -2.38307e-06 -0.475529
    outer loop
      vertex -268.929 -20 -128.316
      vertex -267.027 0 -131.835
      vertex -266.912 -2.28703 -132.046
    endloop
  endfacet
  facet normal -0.879706 -4.62157e-07 -0.475517
    outer loop
      vertex -268.929 -20 -128.316
      vertex -262.343 -10.9397 -140.5
      vertex -254.663 -20 -154.707
    endloop
  endfacet
  facet normal -0.879707 2.60522e-06 -0.475516
    outer loop
      vertex -262.343 -10.9397 -140.5
      vertex -268.929 -20 -128.316
      vertex -263.412 -10.4616 -138.521
    endloop
  endfacet
  facet normal -0.879706 0 -0.475518
    outer loop
      vertex -267.027 0 -131.835
      vertex -268.929 -20 -128.316
      vertex -268.929 20 -128.316
    endloop
  endfacet
  facet normal -0.879703 -1.05283e-06 -0.475524
    outer loop
      vertex -266.575 -4.4741 -132.671
      vertex -268.929 -20 -128.316
      vertex -266.912 -2.28703 -132.046
    endloop
  endfacet
  facet normal -0.879707 2.00043e-06 -0.475516
    outer loop
      vertex -266.028 -6.46564 -133.683
      vertex -268.929 -20 -128.316
      vertex -266.575 -4.4741 -132.671
    endloop
  endfacet
  facet normal -0.879707 1.99056e-06 -0.475516
    outer loop
      vertex -265.296 -8.17459 -135.036
      vertex -268.929 -20 -128.316
      vertex -266.028 -6.46564 -133.683
    endloop
  endfacet
  facet normal -0.879706 1.53714e-07 -0.475518
    outer loop
      vertex -264.411 -9.52628 -136.673
      vertex -268.929 -20 -128.316
      vertex -265.296 -8.17459 -135.036
    endloop
  endfacet
  facet normal -0.879708 3.61546e-06 -0.475515
    outer loop
      vertex -263.412 -10.4616 -138.521
      vertex -268.929 -20 -128.316
      vertex -264.411 -9.52628 -136.673
    endloop
  endfacet
  facet normal 0 1 0
    outer loop
      vertex -219.475 20 -135.686
      vertex -268.929 20 -128.316
      vertex -233.741 20 -109.295
    endloop
  endfacet
  facet normal 0 1 0
    outer loop
      vertex -268.929 20 -128.316
      vertex -219.475 20 -135.686
      vertex -254.663 20 -154.707
    endloop
  endfacet
  facet normal 0 -1 0
    outer loop
      vertex -268.929 -20 -128.316
      vertex -219.475 -20 -135.686
      vertex -233.741 -20 -109.295
    endloop
  endfacet
  facet normal -0 -1 0
    outer loop
      vertex -219.475 -20 -135.686
      vertex -268.929 -20 -128.316
      vertex -254.663 -20 -154.707
    endloop
  endfacet
  facet normal 0.475517 0 -0.879707
    outer loop
      vertex -254.663 -20 -154.707
      vertex -219.475 20 -135.686
      vertex -219.475 -20 -135.686
    endloop
  endfacet
  facet normal 0.475517 0 -0.879707
    outer loop
      vertex -219.475 20 -135.686
      vertex -254.663 -20 -154.707
      vertex -254.663 20 -154.707
    endloop
  endfacet
endsolid OpenSCAD_Model
