####
#
# OBJ File Generated by Meshlab
#
####
# Object ATV_rollcage.obj
#
# Vertices: 124
# Faces: 264
#
####
vn 0.446820 0.830839 0.331751
v -680.950012 19.049999 -580.950012
vn -0.004140 0.350049 0.936722
v 678.343018 19.049999 1015.929993
vn 0.213770 0.976884 0.000862
v -678.202026 19.049999 1015.760010
vn -0.197898 0.853185 -0.482610
v 678.202026 19.049999 980.950012
vn 0.030734 0.175410 0.984016
v 716.442993 19.049999 1015.929993
vn 0.945722 0.324898 -0.007142
v 716.442993 19.049999 977.828003
vn 0.990115 0.140255 0.000000
v 716.442993 19.049999 -618.455017
vn 0.742398 0.155105 0.651757
v 719.049988 19.049999 1019.049988
vn -0.989957 0.141371 0.000000
v -716.442993 19.049999 1014.739990
vn -0.030735 0.175410 0.984016
v -716.442993 19.049999 1015.929993
vn -0.468120 0.748372 0.469897
v -716.442993 19.049999 -580.950012
vn -0.997557 0.069845 -0.001588
v -719.049988 19.049999 -619.049988
vn 0.323705 -0.903080 -0.282243
v -680.950012 -19.049999 980.950012
vn 0.986260 -0.149658 -0.069952
v -680.950012 -0.500000 980.950012
vn 0.004884 0.010832 0.999929
v -678.202026 19.049999 -580.950012
vn 0.996061 0.085845 0.022198
v 552.041992 1188.819946 -580.950012
vn -0.007530 0.007822 0.999941
v 678.202026 19.049999 -580.950012
vn -0.747463 0.103429 0.656203
v -719.049988 19.049999 1019.049988
vn -0.306037 0.667500 -0.678811
v 678.202026 19.049999 -619.049988
vn 0.266522 0.271928 -0.924673
v -678.202026 19.049999 -619.049988
vn -0.007709 0.001101 -0.999970
v -716.442993 19.049999 -619.049988
vn -0.573648 -0.777090 -0.258957
v -719.049988 -19.049999 -619.049988
vn -0.005082 -0.293045 -0.956085
v 516.549011 1169.270020 -619.049988
vn 0.113533 0.802483 -0.585773
v 552.041992 1207.369995 -619.049988
vn 0.003640 -0.418130 -0.908380
v -516.549011 1169.270020 -619.049988
vn 0.548127 -0.801311 0.239704
v -680.950012 -19.049999 -580.950012
vn -0.990115 0.140255 0.000000
v -716.442993 19.049999 -618.455017
vn -0.708156 0.097995 -0.699223
v -552.041992 1188.819946 -619.049988
vn 0.002467 0.926646 0.375928
v -513.942017 1207.369995 200.500000
vn 0.995916 -0.059556 0.067851
v -513.942017 1201.439941 213.824005
vn 0.004784 0.713645 0.700491
v -513.942017 1207.369995 200.000000
vn 0.693727 0.720238 0.000000
v -678.202026 19.049999 -581.577026
vn 0.634054 -0.499673 0.590172
v -516.549011 1169.270020 -580.950012
vn -0.257569 0.898130 0.356399
v 513.942017 1207.369995 -580.950012
vn 0.331535 0.824401 0.458746
v -513.942017 1207.369995 -580.950012
vn -0.550660 0.834725 0.002700
v -552.041992 1207.369995 200.500000
vn 0.336264 0.818800 -0.465289
v -513.942017 1207.369995 161.899994
vn -0.184323 0.849124 -0.494989
v -552.041992 1207.369995 -619.049988
vn -0.184648 -0.526566 0.829839
v -552.041992 1169.270020 -580.950012
vn -0.996061 0.085845 0.022198
v -552.041992 1188.819946 -580.950012
vn -0.998966 0.031424 -0.032863
v -552.041992 1175.199951 186.175995
vn 0.337124 -0.817767 -0.466480
v -513.942017 1169.270020 161.899994
vn -0.995803 -0.064625 0.064813
v 515.158020 1169.270020 200.500000
vn 0.009795 -0.707411 0.706735
v -513.942017 1169.270020 200.000000
vn -0.043634 -0.882309 -0.468643
v -552.041992 1169.270020 193.039993
vn 0.990111 -0.140283 0.000000
v -516.549011 1169.270020 -618.455017
vn -0.449918 -0.640314 0.622553
v 513.942017 1169.270020 -580.950012
vn -0.634054 -0.499673 0.590172
v 516.549011 1169.270020 -580.950012
vn 0.184648 -0.526566 0.829839
v 552.041992 1169.270020 -580.950012
vn 0.353402 -0.369333 0.859477
v -513.942017 1169.270020 200.500000
vn 0.024844 -0.645805 -0.763098
v -598.804993 583.992004 882.577026
vn -0.984778 -0.130711 -0.114573
v -552.041992 1174.500000 186.882996
vn 0.989841 -0.142174 0.000808
v -599.318970 580.336975 886.882996
vn 0.994541 -0.097994 0.035857
v -597.445984 580.336975 886.882996
vn 0.995803 -0.064625 0.064813
v -515.158020 1169.270020 200.500000
vn 0.119614 -0.777249 -0.617719
v -514.677002 1169.270020 193.039993
vn 0.002163 0.762230 0.647302
v -597.445984 607.984985 913.117004
vn 0.002396 0.765153 0.643844
v -513.942017 1202.150024 213.117004
vn -0.430294 0.356705 0.829222
v -635.546021 607.278015 913.823975
vn -0.661866 0.610292 0.435290
v -552.041992 1202.150024 213.117004
vn -0.995746 0.063957 -0.066333
v -634.395020 593.661011 880.950012
vn 0.004376 0.175250 0.984514
v -597.445984 594.661011 919.049988
vn 0.990385 -0.138266 0.004410
v -597.445984 593.661011 919.049988
vn -0.626878 0.629662 0.458857
v -635.546021 607.984985 913.117004
vn -0.995806 0.064863 -0.064529
v -634.330017 594.661011 880.950012
vn 0.995612 -0.058912 0.072703
v -597.445984 607.278015 913.823975
vn -0.158619 -0.141995 -0.977076
v -635.546021 593.661011 880.950012
vn 0.881162 0.355745 -0.311448
v -680.950012 19.049999 977.659973
vn -0.001092 -0.461647 -0.887063
v -635.031982 583.992004 882.577026
vn -0.965614 0.011060 -0.259746
v -635.114014 584.116028 882.556030
vn -0.451618 0.210393 0.867050
v -635.546021 594.661011 919.049988
vn 0.004259 0.266957 0.963699
v -678.343018 19.049999 1015.929993
vn 0.185026 0.385844 -0.903819
v -678.202026 19.049999 980.950012
vn -0.000886 0.981090 -0.193551
v -716.302002 19.049999 977.659973
vn -0.990410 0.138140 -0.002250
v -635.546021 594.661011 880.950012
vn -0.319642 -0.905032 0.280616
v -719.049988 -19.049999 1019.049988
vn -0.945722 0.324898 -0.007142
v -716.442993 19.049999 977.828003
vn -0.642945 0.598951 0.477368
v 680.950012 19.049999 -580.950012
vn -0.428063 -0.823064 0.373267
v 680.950012 -19.049999 -580.950012
vn 0.999387 0.034987 -0.000795
v 719.049988 19.049999 -619.049988
vn 0.441739 -0.808995 0.387806
v 719.049988 -19.049999 1019.049988
vn 0.364603 -0.684689 -0.631083
v 719.049988 -19.049999 -619.049988
vn 0.313785 0.895728 0.314976
v 716.442993 19.049999 -580.950012
vn 0.007709 0.001101 -0.999970
v 716.442993 19.049999 -619.049988
vn -0.009478 0.719985 0.693925
v 513.942017 1207.369995 200.000000
vn -0.258719 -0.897166 -0.357990
v 513.942017 1169.270020 161.899994
vn -0.907279 0.420530 0.000000
v 678.202026 19.049999 -581.577026
vn -0.990111 -0.140283 0.000000
v 516.549011 1169.270020 -618.455017
vn 0.708156 0.097995 -0.699223
v 552.041992 1188.819946 -619.049988
vn -0.995916 -0.059556 0.067851
v 513.942017 1201.439941 213.824005
vn -0.353402 -0.369333 0.859477
v 513.942017 1169.270020 200.500000
vn 0.547667 0.836679 0.005371
v 552.041992 1207.369995 200.500000
vn -0.002363 0.767955 0.640500
v 513.942017 1202.150024 213.117004
vn -0.004852 0.929120 0.369747
v 513.942017 1207.369995 200.500000
vn -0.994541 -0.097993 0.035857
v 597.445984 580.336975 886.882996
vn -0.024844 -0.645805 -0.763098
v 598.804993 583.992004 882.577026
vn -0.119614 -0.777249 -0.617719
v 514.677002 1169.270020 193.039993
vn 0.043634 -0.882309 -0.468643
v 552.041992 1169.270020 193.039993
vn 0.984778 -0.130709 -0.114571
v 552.041992 1174.500000 186.882996
vn 0.633643 0.625300 0.455518
v 635.546021 607.984985 913.117004
vn -0.002162 0.762202 0.647336
v 597.445984 607.984985 913.117004
vn 0.664502 0.607675 0.434935
v 552.041992 1202.150024 213.117004
vn 0.978348 0.020840 -0.205916
v 635.114014 584.116028 882.556030
vn 0.008835 0.427739 0.903859
v 635.546021 607.278015 913.823975
vn 0.995806 0.064863 -0.064529
v 634.330017 594.661011 880.950012
vn 0.995746 0.063958 -0.066332
v 634.395020 593.661011 880.950012
vn 0.998966 0.031424 -0.032863
v 552.041992 1175.199951 186.175995
vn -0.990385 -0.138266 0.004410
v 597.445984 593.661011 919.049988
vn -0.989841 -0.142174 0.000808
v 599.318970 580.336975 886.882996
vn -0.995239 -0.056269 0.079583
v 597.445984 607.278015 913.823975
vn -0.004473 0.170426 0.985360
v 597.445984 594.661011 919.049988
vn 0.001495 -0.566276 -0.824214
v 635.031982 583.992004 882.577026
vn -0.728639 0.631920 -0.264127
v 680.950012 19.049999 977.659973
vn 0.448097 0.212320 0.868406
v 635.546021 594.661011 919.049988
vn 0.989957 0.141371 0.000000
v 716.442993 19.049999 1014.739990
vn -0.408841 0.912604 0.001648
v 678.202026 19.049999 1015.760010
vn -0.986260 -0.149658 -0.069952
v 680.950012 -0.500000 980.950012
vn 0.009024 -0.164723 -0.986299
v 635.546021 593.661011 880.950012
vn 0.001731 0.930719 -0.365731
v 716.302002 19.049999 977.659973
vn 0.990408 0.138156 -0.002250
v 635.546021 594.661011 880.950012
vn 0.445722 -0.648810 0.616747
v -513.942017 1169.270020 -580.950012
vn -0.004899 -0.707268 0.706929
v 513.942017 1169.270020 200.000000
vn -0.390427 0.745461 -0.540235
v 513.942017 1207.369995 161.899994
vn -0.364596 -0.681807 -0.634199
v 680.950012 -19.049999 980.950012
# 124 vertices, 0 vertices normals

f 68//68 1//1 74//74
f 116//116 72//72 2//2
f 116//116 3//3 72//72
f 4//4 3//3 116//116
f 3//3 4//4 73//73
f 2//2 8//8 5//5
f 8//8 115//115 5//5
f 8//8 6//6 115//115
f 119//119 83//83 113//113
f 6//6 83//83 119//119
f 8//8 83//83 6//6
f 80//80 83//83 8//8
f 83//83 80//80 7//7
f 7//7 80//80 84//84
f 8//8 2//2 18//18
f 72//72 18//18 2//2
f 10//10 18//18 72//72
f 9//9 18//18 10//10
f 77//77 18//18 9//9
f 11//11 74//74 1//1
f 74//74 11//11 77//77
f 77//77 11//11 18//18
f 12//12 11//11 27//27
f 12//12 27//27 21//21
f 11//11 12//12 18//18
f 113//113 83//83 78//78
f 87//87 15//15 17//17
f 87//87 32//32 15//15
f 19//19 32//32 87//87
f 32//32 19//19 20//20
f 13//13 68//68 14//14
f 68//68 13//13 26//26
f 68//68 26//26 1//1
f 11//11 39//39 40//40
f 39//39 1//1 15//15
f 39//39 11//11 1//1
f 33//33 39//39 15//15
f 78//78 17//17 79//79
f 49//49 78//78 83//83
f 49//49 83//83 16//16
f 78//78 49//49 17//17
f 17//17 49//49 48//48
f 15//15 79//79 17//17
f 26//26 15//15 1//1
f 15//15 26//26 79//79
f 22//22 18//18 12//12
f 18//18 22//22 76//76
f 21//21 25//25 20//20
f 25//25 21//21 28//28
f 82//82 84//84 80//80
f 82//82 19//19 84//84
f 82//82 20//20 19//19
f 22//22 20//20 82//82
f 20//20 22//22 21//21
f 21//21 22//22 12//12
f 23//23 84//84 19//19
f 84//84 23//23 89//89
f 23//23 24//24 89//89
f 25//25 24//24 23//23
f 38//38 25//25 28//28
f 25//25 38//38 24//24
f 76//76 13//13 81//81
f 76//76 26//26 13//13
f 26//26 22//22 79//79
f 22//22 26//26 76//76
f 124//124 81//81 13//13
f 79//79 81//81 124//124
f 79//79 82//82 81//81
f 82//82 79//79 22//22
f 11//11 40//40 27//27
f 27//27 28//28 21//21
f 28//28 27//27 40//40
f 58//58 31//31 29//29
f 30//30 31//31 58//58
f 44//44 30//30 50//50
f 30//30 44//44 31//31
f 42//42 35//35 37//37
f 35//35 42//42 121//121
f 20//20 46//46 32//32
f 46//46 20//20 25//25
f 32//32 33//33 15//15
f 33//33 32//32 46//46
f 92//92 85//85 94//94
f 85//85 123//123 31//31
f 92//92 123//123 85//85
f 92//92 34//34 123//123
f 34//34 24//24 35//35
f 24//24 34//34 92//92
f 31//31 36//36 29//29
f 37//37 31//31 123//123
f 31//31 37//37 36//36
f 35//35 36//36 37//37
f 35//35 38//38 36//36
f 38//38 35//35 24//24
f 40//40 36//36 38//38
f 40//40 38//38 28//28
f 41//41 36//36 40//40
f 36//36 41//41 60//60
f 39//39 41//41 40//40
f 41//41 39//39 52//52
f 52//52 39//39 45//45
f 55//55 44//44 50//50
f 42//42 44//44 56//56
f 56//56 44//44 55//55
f 122//122 43//43 91//91
f 122//122 97//97 43//43
f 44//44 42//42 122//122
f 42//42 56//56 45//45
f 86//86 122//122 42//42
f 122//122 86//86 97//97
f 39//39 42//42 45//45
f 33//33 42//42 39//39
f 33//33 121//121 42//42
f 46//46 121//121 33//33
f 25//25 121//121 46//46
f 121//121 25//25 47//47
f 47//47 88//88 48//48
f 23//23 47//47 25//25
f 47//47 23//23 88//88
f 97//97 86//86 98//98
f 48//48 86//86 47//47
f 49//49 86//86 48//48
f 86//86 49//49 98//98
f 50//50 30//30 55//55
f 29//29 60//60 58//58
f 60//60 29//29 36//36
f 69//69 45//45 51//51
f 45//45 69//69 52//52
f 51//51 54//54 53//53
f 56//56 51//51 45//45
f 51//51 56//56 54//54
f 66//66 55//55 30//30
f 54//54 55//55 66//66
f 55//55 54//54 56//56
f 60//60 57//57 58//58
f 57//57 60//60 64//64
f 57//57 30//30 58//58
f 30//30 57//57 66//66
f 52//52 70//70 41//41
f 70//70 52//52 69//69
f 75//75 59//59 64//64
f 59//59 75//75 71//71
f 64//64 66//66 57//57
f 66//66 64//64 59//59
f 65//65 60//60 41//41
f 60//60 65//65 64//64
f 41//41 61//61 65//65
f 61//61 41//41 70//70
f 63//63 66//66 62//62
f 66//66 63//63 54//54
f 54//54 63//63 53//53
f 64//64 65//65 75//75
f 59//59 62//62 66//66
f 62//62 59//59 71//71
f 75//75 61//61 67//67
f 61//61 75//75 65//65
f 68//68 51//51 14//14
f 51//51 68//68 69//69
f 74//74 69//69 68//68
f 69//69 74//74 70//70
f 70//70 74//74 67//67
f 61//61 70//70 67//67
f 9//9 71//71 75//75
f 71//71 9//9 10//10
f 63//63 14//14 53//53
f 51//51 53//53 14//14
f 71//71 72//72 62//62
f 72//72 71//71 10//10
f 72//72 63//63 62//62
f 63//63 72//72 3//3
f 73//73 63//63 3//3
f 63//63 73//73 14//14
f 77//77 67//67 74//74
f 67//67 77//77 75//75
f 18//18 81//81 8//8
f 81//81 18//18 76//76
f 75//75 77//77 9//9
f 79//79 113//113 78//78
f 124//124 113//113 79//79
f 113//113 124//124 117//117
f 81//81 80//80 8//8
f 80//80 81//81 82//82
f 7//7 16//16 83//83
f 7//7 89//89 16//16
f 89//89 7//7 84//84
f 85//85 93//93 94//94
f 85//85 90//90 93//93
f 122//122 90//90 85//85
f 90//90 122//122 91//91
f 47//47 123//123 34//34
f 123//123 47//47 86//86
f 19//19 88//88 23//23
f 88//88 19//19 87//87
f 87//87 48//48 88//88
f 48//48 87//87 17//17
f 92//92 107//107 16//16
f 49//49 107//107 99//99
f 49//49 99//99 98//98
f 107//107 49//49 16//16
f 107//107 92//92 102//102
f 92//92 16//16 24//24
f 24//24 16//16 89//89
f 90//90 91//91 43//43
f 92//92 93//93 102//102
f 93//93 92//92 94//94
f 95//95 96//96 109//109
f 97//97 96//96 95//95
f 98//98 96//96 97//97
f 96//96 98//98 112//112
f 112//112 98//98 99//99
f 95//95 43//43 97//97
f 43//43 95//95 110//110
f 90//90 43//43 110//110
f 102//102 101//101 100//100
f 101//101 102//102 93//93
f 90//90 101//101 93//93
f 101//101 90//90 110//110
f 103//103 99//99 107//107
f 99//99 103//103 112//112
f 114//114 100//100 104//104
f 100//100 114//114 120//120
f 101//101 104//104 100//100
f 104//104 101//101 110//110
f 105//105 102//102 100//100
f 102//102 105//105 107//107
f 106//106 107//107 105//105
f 107//107 106//106 103//103
f 110//110 108//108 111//111
f 108//108 110//110 95//95
f 108//108 95//95 109//109
f 120//120 105//105 100//100
f 110//110 114//114 104//104
f 114//114 110//110 111//111
f 106//106 120//120 118//118
f 120//120 106//106 105//105
f 96//96 113//113 117//117
f 113//113 103//103 118//118
f 113//113 112//112 103//103
f 113//113 96//96 112//112
f 119//119 113//113 118//118
f 118//118 103//103 106//106
f 115//115 114//114 5//5
f 114//114 115//115 120//120
f 96//96 117//117 109//109
f 108//108 109//109 117//117
f 114//114 2//2 5//5
f 2//2 114//114 111//111
f 2//2 108//108 116//116
f 108//108 2//2 111//111
f 108//108 117//117 4//4
f 108//108 4//4 116//116
f 6//6 118//118 120//120
f 118//118 6//6 119//119
f 6//6 120//120 115//115
f 35//35 47//47 34//34
f 47//47 35//35 121//121
f 31//31 122//122 85//85
f 122//122 31//31 44//44
f 42//42 123//123 86//86
f 123//123 42//42 37//37
f 124//124 4//4 117//117
f 124//124 73//73 4//4
f 13//13 73//73 124//124
f 73//73 13//13 14//14
# 264 faces, 0 coords texture

# End of File