solid OpenSCAD_Model
  facet normal 0 1 0
    outer loop
      vertex -680.95 19.05 977.66
      vertex -680.95 19.05 -580.95
      vertex -716.302 19.05 977.66
    endloop
  endfacet
  facet normal 0 1 -0
    outer loop
      vertex 678.202 19.05 1015.76
      vertex -678.343 19.05 1015.93
      vertex 678.343 19.05 1015.93
    endloop
  endfacet
  facet normal 0 1 0
    outer loop
      vertex 678.202 19.05 1015.76
      vertex -678.202 19.05 1015.76
      vertex -678.343 19.05 1015.93
    endloop
  endfacet
  facet normal 0 1 -0
    outer loop
      vertex 678.202 19.05 980.95
      vertex -678.202 19.05 1015.76
      vertex 678.202 19.05 1015.76
    endloop
  endfacet
  facet normal 0 1 0
    outer loop
      vertex -678.202 19.05 1015.76
      vertex 678.202 19.05 980.95
      vertex -678.202 19.05 980.95
    endloop
  endfacet
  facet normal 0 1 0
    outer loop
      vertex 678.343 19.05 1015.93
      vertex 719.05 19.05 1019.05
      vertex 716.443 19.05 1015.93
    endloop
  endfacet
  facet normal 0 1 0
    outer loop
      vertex 719.05 19.05 1019.05
      vertex 716.443 19.05 1014.74
      vertex 716.443 19.05 1015.93
    endloop
  endfacet
  facet normal 0 1 0
    outer loop
      vertex 719.05 19.05 1019.05
      vertex 716.443 19.05 977.828
      vertex 716.443 19.05 1014.74
    endloop
  endfacet
  facet normal 0 1 0
    outer loop
      vertex 716.302 19.05 977.66
      vertex 716.443 19.05 -580.95
      vertex 680.95 19.05 977.66
    endloop
  endfacet
  facet normal 0 1 0
    outer loop
      vertex 716.443 19.05 977.828
      vertex 716.443 19.05 -580.95
      vertex 716.302 19.05 977.66
    endloop
  endfacet
  facet normal 0 1 0
    outer loop
      vertex 719.05 19.05 1019.05
      vertex 716.443 19.05 -580.95
      vertex 716.443 19.05 977.828
    endloop
  endfacet
  facet normal 0 1 -0
    outer loop
      vertex 719.05 19.05 -619.05
      vertex 716.443 19.05 -580.95
      vertex 719.05 19.05 1019.05
    endloop
  endfacet
  facet normal 0 1 0
    outer loop
      vertex 716.443 19.05 -580.95
      vertex 719.05 19.05 -619.05
      vertex 716.443 19.05 -618.455
    endloop
  endfacet
  facet normal 0 1 0
    outer loop
      vertex 716.443 19.05 -618.455
      vertex 719.05 19.05 -619.05
      vertex 716.443 19.05 -619.05
    endloop
  endfacet
  facet normal 0 1 0
    outer loop
      vertex 719.05 19.05 1019.05
      vertex 678.343 19.05 1015.93
      vertex -719.05 19.05 1019.05
    endloop
  endfacet
  facet normal 0 1 -0
    outer loop
      vertex -678.343 19.05 1015.93
      vertex -719.05 19.05 1019.05
      vertex 678.343 19.05 1015.93
    endloop
  endfacet
  facet normal 0 1 -0
    outer loop
      vertex -716.443 19.05 1015.93
      vertex -719.05 19.05 1019.05
      vertex -678.343 19.05 1015.93
    endloop
  endfacet
  facet normal 0 1 -0
    outer loop
      vertex -716.443 19.05 1014.74
      vertex -719.05 19.05 1019.05
      vertex -716.443 19.05 1015.93
    endloop
  endfacet
  facet normal 0 1 -0
    outer loop
      vertex -716.443 19.05 977.828
      vertex -719.05 19.05 1019.05
      vertex -716.443 19.05 1014.74
    endloop
  endfacet
  facet normal 0 1 0
    outer loop
      vertex -716.443 19.05 -580.95
      vertex -716.302 19.05 977.66
      vertex -680.95 19.05 -580.95
    endloop
  endfacet
  facet normal 0 1 0
    outer loop
      vertex -716.302 19.05 977.66
      vertex -716.443 19.05 -580.95
      vertex -716.443 19.05 977.828
    endloop
  endfacet
  facet normal 0 1 0
    outer loop
      vertex -716.443 19.05 977.828
      vertex -716.443 19.05 -580.95
      vertex -719.05 19.05 1019.05
    endloop
  endfacet
  facet normal 0 1 0
    outer loop
      vertex -719.05 19.05 -619.05
      vertex -716.443 19.05 -580.95
      vertex -716.443 19.05 -618.455
    endloop
  endfacet
  facet normal 0 1 0
    outer loop
      vertex -719.05 19.05 -619.05
      vertex -716.443 19.05 -618.455
      vertex -716.443 19.05 -619.05
    endloop
  endfacet
  facet normal 0 1 0
    outer loop
      vertex -716.443 19.05 -580.95
      vertex -719.05 19.05 -619.05
      vertex -719.05 19.05 1019.05
    endloop
  endfacet
  facet normal 0 1 0
    outer loop
      vertex 680.95 19.05 977.66
      vertex 716.443 19.05 -580.95
      vertex 680.95 19.05 -580.95
    endloop
  endfacet
  facet normal 0 1 -0
    outer loop
      vertex 678.202 19.05 -581.577
      vertex -678.202 19.05 -580.95
      vertex 678.202 19.05 -580.95
    endloop
  endfacet
  facet normal 0 1 0
    outer loop
      vertex 678.202 19.05 -581.577
      vertex -678.202 19.05 -581.577
      vertex -678.202 19.05 -580.95
    endloop
  endfacet
  facet normal 0 1 -0
    outer loop
      vertex 678.202 19.05 -619.05
      vertex -678.202 19.05 -581.577
      vertex 678.202 19.05 -581.577
    endloop
  endfacet
  facet normal 0 1 0
    outer loop
      vertex -678.202 19.05 -581.577
      vertex 678.202 19.05 -619.05
      vertex -678.202 19.05 -619.05
    endloop
  endfacet
  facet normal 1 -0 0
    outer loop
      vertex -680.95 -19.05 980.95
      vertex -680.95 19.05 977.66
      vertex -680.95 -0.5 980.95
    endloop
  endfacet
  facet normal 1 0 0
    outer loop
      vertex -680.95 19.05 977.66
      vertex -680.95 -19.05 980.95
      vertex -680.95 -19.05 -580.95
    endloop
  endfacet
  facet normal 1 0 0
    outer loop
      vertex -680.95 19.05 977.66
      vertex -680.95 -19.05 -580.95
      vertex -680.95 19.05 -580.95
    endloop
  endfacet
  facet normal 0 0 1
    outer loop
      vertex -716.443 19.05 -580.95
      vertex -552.042 1169.27 -580.95
      vertex -552.042 1188.82 -580.95
    endloop
  endfacet
  facet normal 0 0 1
    outer loop
      vertex -552.042 1169.27 -580.95
      vertex -680.95 19.05 -580.95
      vertex -678.202 19.05 -580.95
    endloop
  endfacet
  facet normal 0 0 1
    outer loop
      vertex -552.042 1169.27 -580.95
      vertex -716.443 19.05 -580.95
      vertex -680.95 19.05 -580.95
    endloop
  endfacet
  facet normal 0 0 1
    outer loop
      vertex -516.549 1169.27 -580.95
      vertex -552.042 1169.27 -580.95
      vertex -678.202 19.05 -580.95
    endloop
  endfacet
  facet normal 0 0 1
    outer loop
      vertex 680.95 19.05 -580.95
      vertex 678.202 19.05 -580.95
      vertex 680.95 -19.05 -580.95
    endloop
  endfacet
  facet normal 0 0 1
    outer loop
      vertex 552.042 1169.27 -580.95
      vertex 680.95 19.05 -580.95
      vertex 716.443 19.05 -580.95
    endloop
  endfacet
  facet normal -0 0 1
    outer loop
      vertex 552.042 1169.27 -580.95
      vertex 716.443 19.05 -580.95
      vertex 552.042 1188.82 -580.95
    endloop
  endfacet
  facet normal 0 0 1
    outer loop
      vertex 680.95 19.05 -580.95
      vertex 552.042 1169.27 -580.95
      vertex 678.202 19.05 -580.95
    endloop
  endfacet
  facet normal 0 0 1
    outer loop
      vertex 678.202 19.05 -580.95
      vertex 552.042 1169.27 -580.95
      vertex 516.549 1169.27 -580.95
    endloop
  endfacet
  facet normal -0 0 1
    outer loop
      vertex -678.202 19.05 -580.95
      vertex 680.95 -19.05 -580.95
      vertex 678.202 19.05 -580.95
    endloop
  endfacet
  facet normal 0 0 1
    outer loop
      vertex -680.95 -19.05 -580.95
      vertex -678.202 19.05 -580.95
      vertex -680.95 19.05 -580.95
    endloop
  endfacet
  facet normal 0 0 1
    outer loop
      vertex -678.202 19.05 -580.95
      vertex -680.95 -19.05 -580.95
      vertex 680.95 -19.05 -580.95
    endloop
  endfacet
  facet normal -1 0 0
    outer loop
      vertex -719.05 -19.05 -619.05
      vertex -719.05 19.05 1019.05
      vertex -719.05 19.05 -619.05
    endloop
  endfacet
  facet normal -1 -0 0
    outer loop
      vertex -719.05 19.05 1019.05
      vertex -719.05 -19.05 -619.05
      vertex -719.05 -19.05 1019.05
    endloop
  endfacet
  facet normal 0 0 -1
    outer loop
      vertex -716.443 19.05 -619.05
      vertex -516.549 1169.27 -619.05
      vertex -678.202 19.05 -619.05
    endloop
  endfacet
  facet normal -0 0 -1
    outer loop
      vertex -516.549 1169.27 -619.05
      vertex -716.443 19.05 -619.05
      vertex -552.042 1188.82 -619.05
    endloop
  endfacet
  facet normal 0 0 -1
    outer loop
      vertex 719.05 -19.05 -619.05
      vertex 716.443 19.05 -619.05
      vertex 719.05 19.05 -619.05
    endloop
  endfacet
  facet normal 0 0 -1
    outer loop
      vertex 719.05 -19.05 -619.05
      vertex 678.202 19.05 -619.05
      vertex 716.443 19.05 -619.05
    endloop
  endfacet
  facet normal 0 0 -1
    outer loop
      vertex 719.05 -19.05 -619.05
      vertex -678.202 19.05 -619.05
      vertex 678.202 19.05 -619.05
    endloop
  endfacet
  facet normal 0 0 -1
    outer loop
      vertex -719.05 -19.05 -619.05
      vertex -678.202 19.05 -619.05
      vertex 719.05 -19.05 -619.05
    endloop
  endfacet
  facet normal -0 0 -1
    outer loop
      vertex -678.202 19.05 -619.05
      vertex -719.05 -19.05 -619.05
      vertex -716.443 19.05 -619.05
    endloop
  endfacet
  facet normal -0 0 -1
    outer loop
      vertex -716.443 19.05 -619.05
      vertex -719.05 -19.05 -619.05
      vertex -719.05 19.05 -619.05
    endloop
  endfacet
  facet normal 0 0 -1
    outer loop
      vertex 516.549 1169.27 -619.05
      vertex 716.443 19.05 -619.05
      vertex 678.202 19.05 -619.05
    endloop
  endfacet
  facet normal 0 0 -1
    outer loop
      vertex 716.443 19.05 -619.05
      vertex 516.549 1169.27 -619.05
      vertex 552.042 1188.82 -619.05
    endloop
  endfacet
  facet normal 0 0 -1
    outer loop
      vertex 516.549 1169.27 -619.05
      vertex 552.042 1207.37 -619.05
      vertex 552.042 1188.82 -619.05
    endloop
  endfacet
  facet normal 0 0 -1
    outer loop
      vertex -516.549 1169.27 -619.05
      vertex 552.042 1207.37 -619.05
      vertex 516.549 1169.27 -619.05
    endloop
  endfacet
  facet normal 0 0 -1
    outer loop
      vertex -552.042 1207.37 -619.05
      vertex -516.549 1169.27 -619.05
      vertex -552.042 1188.82 -619.05
    endloop
  endfacet
  facet normal 0 0 -1
    outer loop
      vertex -516.549 1169.27 -619.05
      vertex -552.042 1207.37 -619.05
      vertex 552.042 1207.37 -619.05
    endloop
  endfacet
  facet normal 0 -1 0
    outer loop
      vertex -719.05 -19.05 1019.05
      vertex -680.95 -19.05 980.95
      vertex 719.05 -19.05 1019.05
    endloop
  endfacet
  facet normal 0 -1 0
    outer loop
      vertex -719.05 -19.05 1019.05
      vertex -680.95 -19.05 -580.95
      vertex -680.95 -19.05 980.95
    endloop
  endfacet
  facet normal 0 -1 -0
    outer loop
      vertex -680.95 -19.05 -580.95
      vertex -719.05 -19.05 -619.05
      vertex 680.95 -19.05 -580.95
    endloop
  endfacet
  facet normal 0 -1 0
    outer loop
      vertex -719.05 -19.05 -619.05
      vertex -680.95 -19.05 -580.95
      vertex -719.05 -19.05 1019.05
    endloop
  endfacet
  facet normal 0 -1 0
    outer loop
      vertex 680.95 -19.05 980.95
      vertex 719.05 -19.05 1019.05
      vertex -680.95 -19.05 980.95
    endloop
  endfacet
  facet normal 0 -1 0
    outer loop
      vertex 680.95 -19.05 -580.95
      vertex 719.05 -19.05 1019.05
      vertex 680.95 -19.05 980.95
    endloop
  endfacet
  facet normal 0 -1 0
    outer loop
      vertex 680.95 -19.05 -580.95
      vertex 719.05 -19.05 -619.05
      vertex 719.05 -19.05 1019.05
    endloop
  endfacet
  facet normal 0 -1 0
    outer loop
      vertex 719.05 -19.05 -619.05
      vertex 680.95 -19.05 -580.95
      vertex -719.05 -19.05 -619.05
    endloop
  endfacet
  facet normal -0.990268 0.139173 0
    outer loop
      vertex -716.443 19.05 -580.95
      vertex -552.042 1188.82 -580.95
      vertex -716.443 19.05 -618.455
    endloop
  endfacet
  facet normal -0.990268 0.139173 0
    outer loop
      vertex -716.443 19.05 -618.455
      vertex -552.042 1188.82 -619.05
      vertex -716.443 19.05 -619.05
    endloop
  endfacet
  facet normal -0.990268 0.139173 0
    outer loop
      vertex -552.042 1188.82 -619.05
      vertex -716.443 19.05 -618.455
      vertex -552.042 1188.82 -580.95
    endloop
  endfacet
  facet normal 1 0 0
    outer loop
      vertex -513.942 1202.15 213.117
      vertex -513.942 1207.37 200
      vertex -513.942 1207.37 200.5
    endloop
  endfacet
  facet normal 1 0 0
    outer loop
      vertex -513.942 1201.44 213.824
      vertex -513.942 1207.37 200
      vertex -513.942 1202.15 213.117
    endloop
  endfacet
  facet normal 1 0 0
    outer loop
      vertex -513.942 1169.27 200
      vertex -513.942 1201.44 213.824
      vertex -513.942 1169.27 200.5
    endloop
  endfacet
  facet normal 1 0 0
    outer loop
      vertex -513.942 1201.44 213.824
      vertex -513.942 1169.27 200
      vertex -513.942 1207.37 200
    endloop
  endfacet
  facet normal 1 -0 0
    outer loop
      vertex -513.942 1169.27 161.9
      vertex -513.942 1207.37 -580.95
      vertex -513.942 1207.37 161.9
    endloop
  endfacet
  facet normal 1 0 0
    outer loop
      vertex -513.942 1207.37 -580.95
      vertex -513.942 1169.27 161.9
      vertex -513.942 1169.27 -580.95
    endloop
  endfacet
  facet normal 0.990268 -0.139173 0
    outer loop
      vertex -678.202 19.05 -619.05
      vertex -516.549 1169.27 -618.455
      vertex -678.202 19.05 -581.577
    endloop
  endfacet
  facet normal 0.990268 -0.139173 0
    outer loop
      vertex -516.549 1169.27 -618.455
      vertex -678.202 19.05 -619.05
      vertex -516.549 1169.27 -619.05
    endloop
  endfacet
  facet normal 0.990268 -0.139173 0
    outer loop
      vertex -678.202 19.05 -581.577
      vertex -516.549 1169.27 -580.95
      vertex -678.202 19.05 -580.95
    endloop
  endfacet
  facet normal 0.990268 -0.139173 0
    outer loop
      vertex -516.549 1169.27 -580.95
      vertex -678.202 19.05 -581.577
      vertex -516.549 1169.27 -618.455
    endloop
  endfacet
  facet normal 0 1 0
    outer loop
      vertex 552.042 1207.37 200.5
      vertex 513.942 1207.37 200
      vertex 513.942 1207.37 200.5
    endloop
  endfacet
  facet normal 0 1 0
    outer loop
      vertex 513.942 1207.37 200
      vertex 513.942 1207.37 161.9
      vertex -513.942 1207.37 200
    endloop
  endfacet
  facet normal 0 1 0
    outer loop
      vertex 552.042 1207.37 200.5
      vertex 513.942 1207.37 161.9
      vertex 513.942 1207.37 200
    endloop
  endfacet
  facet normal 0 1 0
    outer loop
      vertex 552.042 1207.37 200.5
      vertex 513.942 1207.37 -580.95
      vertex 513.942 1207.37 161.9
    endloop
  endfacet
  facet normal 0 1 0
    outer loop
      vertex 513.942 1207.37 -580.95
      vertex 552.042 1207.37 -619.05
      vertex -513.942 1207.37 -580.95
    endloop
  endfacet
  facet normal 0 1 -0
    outer loop
      vertex 552.042 1207.37 -619.05
      vertex 513.942 1207.37 -580.95
      vertex 552.042 1207.37 200.5
    endloop
  endfacet
  facet normal 0 1 -0
    outer loop
      vertex -513.942 1207.37 200
      vertex -552.042 1207.37 200.5
      vertex -513.942 1207.37 200.5
    endloop
  endfacet
  facet normal 0 1 0
    outer loop
      vertex -513.942 1207.37 161.9
      vertex -513.942 1207.37 200
      vertex 513.942 1207.37 161.9
    endloop
  endfacet
  facet normal 0 1 0
    outer loop
      vertex -513.942 1207.37 200
      vertex -513.942 1207.37 161.9
      vertex -552.042 1207.37 200.5
    endloop
  endfacet
  facet normal 0 1 -0
    outer loop
      vertex -513.942 1207.37 -580.95
      vertex -552.042 1207.37 200.5
      vertex -513.942 1207.37 161.9
    endloop
  endfacet
  facet normal 0 1 0
    outer loop
      vertex -513.942 1207.37 -580.95
      vertex -552.042 1207.37 -619.05
      vertex -552.042 1207.37 200.5
    endloop
  endfacet
  facet normal 0 1 0
    outer loop
      vertex -552.042 1207.37 -619.05
      vertex -513.942 1207.37 -580.95
      vertex 552.042 1207.37 -619.05
    endloop
  endfacet
  facet normal -1 0 0
    outer loop
      vertex -552.042 1188.82 -580.95
      vertex -552.042 1207.37 200.5
      vertex -552.042 1207.37 -619.05
    endloop
  endfacet
  facet normal -1 0 0
    outer loop
      vertex -552.042 1188.82 -580.95
      vertex -552.042 1207.37 -619.05
      vertex -552.042 1188.82 -619.05
    endloop
  endfacet
  facet normal -1 0 0
    outer loop
      vertex -552.042 1175.2 186.176
      vertex -552.042 1207.37 200.5
      vertex -552.042 1188.82 -580.95
    endloop
  endfacet
  facet normal -1 -0 0
    outer loop
      vertex -552.042 1207.37 200.5
      vertex -552.042 1175.2 186.176
      vertex -552.042 1202.15 213.117
    endloop
  endfacet
  facet normal -1 0 0
    outer loop
      vertex -552.042 1169.27 -580.95
      vertex -552.042 1175.2 186.176
      vertex -552.042 1188.82 -580.95
    endloop
  endfacet
  facet normal -1 -0 0
    outer loop
      vertex -552.042 1175.2 186.176
      vertex -552.042 1169.27 -580.95
      vertex -552.042 1174.5 186.883
    endloop
  endfacet
  facet normal -1 -0 0
    outer loop
      vertex -552.042 1174.5 186.883
      vertex -552.042 1169.27 -580.95
      vertex -552.042 1169.27 193.04
    endloop
  endfacet
  facet normal 0 -1 0
    outer loop
      vertex -515.158 1169.27 200.5
      vertex -513.942 1169.27 200
      vertex -513.942 1169.27 200.5
    endloop
  endfacet
  facet normal 0 -1 0
    outer loop
      vertex -513.942 1169.27 161.9
      vertex -513.942 1169.27 200
      vertex -514.677 1169.27 193.04
    endloop
  endfacet
  facet normal 0 -1 0
    outer loop
      vertex -514.677 1169.27 193.04
      vertex -513.942 1169.27 200
      vertex -515.158 1169.27 200.5
    endloop
  endfacet
  facet normal 0 -1 0
    outer loop
      vertex 513.942 1169.27 200
      vertex 515.158 1169.27 200.5
      vertex 513.942 1169.27 200.5
    endloop
  endfacet
  facet normal 0 -1 0
    outer loop
      vertex 513.942 1169.27 200
      vertex 514.677 1169.27 193.04
      vertex 515.158 1169.27 200.5
    endloop
  endfacet
  facet normal 0 -1 0
    outer loop
      vertex -513.942 1169.27 200
      vertex -513.942 1169.27 161.9
      vertex 513.942 1169.27 200
    endloop
  endfacet
  facet normal 0 -1 0
    outer loop
      vertex -513.942 1169.27 161.9
      vertex -514.677 1169.27 193.04
      vertex -552.042 1169.27 193.04
    endloop
  endfacet
  facet normal 0 -1 0
    outer loop
      vertex 513.942 1169.27 161.9
      vertex 513.942 1169.27 200
      vertex -513.942 1169.27 161.9
    endloop
  endfacet
  facet normal 0 -1 0
    outer loop
      vertex 513.942 1169.27 200
      vertex 513.942 1169.27 161.9
      vertex 514.677 1169.27 193.04
    endloop
  endfacet
  facet normal 0 -1 0
    outer loop
      vertex -552.042 1169.27 -580.95
      vertex -513.942 1169.27 161.9
      vertex -552.042 1169.27 193.04
    endloop
  endfacet
  facet normal 0 -1 0
    outer loop
      vertex -516.549 1169.27 -580.95
      vertex -513.942 1169.27 161.9
      vertex -552.042 1169.27 -580.95
    endloop
  endfacet
  facet normal 0 -1 0
    outer loop
      vertex -516.549 1169.27 -580.95
      vertex -513.942 1169.27 -580.95
      vertex -513.942 1169.27 161.9
    endloop
  endfacet
  facet normal 0 -1 0
    outer loop
      vertex -516.549 1169.27 -618.455
      vertex -513.942 1169.27 -580.95
      vertex -516.549 1169.27 -580.95
    endloop
  endfacet
  facet normal 0 -1 0
    outer loop
      vertex -516.549 1169.27 -619.05
      vertex -513.942 1169.27 -580.95
      vertex -516.549 1169.27 -618.455
    endloop
  endfacet
  facet normal 0 -1 -0
    outer loop
      vertex -513.942 1169.27 -580.95
      vertex -516.549 1169.27 -619.05
      vertex 513.942 1169.27 -580.95
    endloop
  endfacet
  facet normal 0 -1 0
    outer loop
      vertex 513.942 1169.27 -580.95
      vertex 516.549 1169.27 -618.455
      vertex 516.549 1169.27 -580.95
    endloop
  endfacet
  facet normal 0 -1 0
    outer loop
      vertex 516.549 1169.27 -619.05
      vertex 513.942 1169.27 -580.95
      vertex -516.549 1169.27 -619.05
    endloop
  endfacet
  facet normal 0 -1 0
    outer loop
      vertex 513.942 1169.27 -580.95
      vertex 516.549 1169.27 -619.05
      vertex 516.549 1169.27 -618.455
    endloop
  endfacet
  facet normal 0 -1 -0
    outer loop
      vertex 514.677 1169.27 193.04
      vertex 513.942 1169.27 161.9
      vertex 552.042 1169.27 193.04
    endloop
  endfacet
  facet normal 0 -1 0
    outer loop
      vertex 516.549 1169.27 -580.95
      vertex 513.942 1169.27 161.9
      vertex 513.942 1169.27 -580.95
    endloop
  endfacet
  facet normal 0 -1 0
    outer loop
      vertex 552.042 1169.27 -580.95
      vertex 513.942 1169.27 161.9
      vertex 516.549 1169.27 -580.95
    endloop
  endfacet
  facet normal 0 -1 0
    outer loop
      vertex 513.942 1169.27 161.9
      vertex 552.042 1169.27 -580.95
      vertex 552.042 1169.27 193.04
    endloop
  endfacet
  facet normal 0 -0.382684 0.923879
    outer loop
      vertex -513.942 1169.27 200.5
      vertex -513.942 1201.44 213.824
      vertex -515.158 1169.27 200.5
    endloop
  endfacet
  facet normal 0 0.923879 0.382684
    outer loop
      vertex -513.942 1207.37 200.5
      vertex -552.042 1202.15 213.117
      vertex -513.942 1202.15 213.117
    endloop
  endfacet
  facet normal 0 0.923879 0.382684
    outer loop
      vertex -552.042 1202.15 213.117
      vertex -513.942 1207.37 200.5
      vertex -552.042 1207.37 200.5
    endloop
  endfacet
  facet normal 0 -0.76239 -0.647118
    outer loop
      vertex -635.032 583.992 882.577
      vertex -552.042 1169.27 193.04
      vertex -598.805 583.992 882.577
    endloop
  endfacet
  facet normal -7.4083e-06 -0.76239 -0.647118
    outer loop
      vertex -552.042 1169.27 193.04
      vertex -635.032 583.992 882.577
      vertex -552.042 1174.5 186.883
    endloop
  endfacet
  facet normal 0 -0.762388 -0.647121
    outer loop
      vertex -598.805 583.992 882.577
      vertex -597.446 580.337 886.883
      vertex -599.319 580.337 886.883
    endloop
  endfacet
  facet normal -0 -0.76239 -0.647118
    outer loop
      vertex -514.677 1169.27 193.04
      vertex -598.805 583.992 882.577
      vertex -552.042 1169.27 193.04
    endloop
  endfacet
  facet normal -1.1621e-05 -0.762389 -0.647118
    outer loop
      vertex -598.805 583.992 882.577
      vertex -514.677 1169.27 193.04
      vertex -597.446 580.337 886.883
    endloop
  endfacet
  facet normal 0.995863 -0.064257 0.0642563
    outer loop
      vertex -597.446 607.278 913.824
      vertex -515.158 1169.27 200.5
      vertex -513.942 1201.44 213.824
    endloop
  endfacet
  facet normal 0.995863 -0.0642566 0.0642566
    outer loop
      vertex -597.446 580.337 886.883
      vertex -515.158 1169.27 200.5
      vertex -597.446 607.278 913.824
    endloop
  endfacet
  facet normal 0.995863 -0.0642585 0.064255
    outer loop
      vertex -515.158 1169.27 200.5
      vertex -597.446 580.337 886.883
      vertex -514.677 1169.27 193.04
    endloop
  endfacet
  facet normal -0 0.76239 0.647118
    outer loop
      vertex -552.042 1202.15 213.117
      vertex -597.446 607.985 913.117
      vertex -513.942 1202.15 213.117
    endloop
  endfacet
  facet normal 0 0.76239 0.647118
    outer loop
      vertex -597.446 607.985 913.117
      vertex -552.042 1202.15 213.117
      vertex -635.546 607.985 913.117
    endloop
  endfacet
  facet normal 0.667563 0.526462 0.526496
    outer loop
      vertex -597.446 607.985 913.117
      vertex -513.942 1201.44 213.824
      vertex -513.942 1202.15 213.117
    endloop
  endfacet
  facet normal 0.667612 0.526425 0.526471
    outer loop
      vertex -513.942 1201.44 213.824
      vertex -597.446 607.985 913.117
      vertex -597.446 607.278 913.824
    endloop
  endfacet
  facet normal -0.667173 -0.526754 -0.526698
    outer loop
      vertex -552.042 1174.5 186.883
      vertex -635.114 584.116 882.556
      vertex -552.042 1175.2 186.176
    endloop
  endfacet
  facet normal -0.667283 -0.526672 -0.526641
    outer loop
      vertex -635.114 584.116 882.556
      vertex -552.042 1174.5 186.883
      vertex -635.032 583.992 882.577
    endloop
  endfacet
  facet normal -1 0 0
    outer loop
      vertex -635.546 594.661 880.95
      vertex -635.546 607.278 913.824
      vertex -635.546 607.985 913.117
    endloop
  endfacet
  facet normal -1 -0 0
    outer loop
      vertex -635.546 607.278 913.824
      vertex -635.546 594.661 880.95
      vertex -635.546 594.661 919.05
    endloop
  endfacet
  facet normal -0 0.707076 0.707137
    outer loop
      vertex -635.546 607.985 913.117
      vertex -597.446 607.278 913.824
      vertex -597.446 607.985 913.117
    endloop
  endfacet
  facet normal 0 0.707076 0.707137
    outer loop
      vertex -597.446 607.278 913.824
      vertex -635.546 607.985 913.117
      vertex -635.546 607.278 913.824
    endloop
  endfacet
  facet normal -0.995863 0.0642566 -0.0642566
    outer loop
      vertex -634.33 594.661 880.95
      vertex -552.042 1202.15 213.117
      vertex -552.042 1175.2 186.176
    endloop
  endfacet
  facet normal -0.995863 0.0642562 -0.0642569
    outer loop
      vertex -552.042 1202.15 213.117
      vertex -634.33 594.661 880.95
      vertex -635.546 607.985 913.117
    endloop
  endfacet
  facet normal -0.995863 0.0642472 -0.0642644
    outer loop
      vertex -552.042 1175.2 186.176
      vertex -634.395 593.661 880.95
      vertex -634.33 594.661 880.95
    endloop
  endfacet
  facet normal -0.995863 0.0642556 -0.0642573
    outer loop
      vertex -634.395 593.661 880.95
      vertex -552.042 1175.2 186.176
      vertex -635.114 584.116 882.556
    endloop
  endfacet
  facet normal 1 -0 0
    outer loop
      vertex -597.446 593.661 919.05
      vertex -597.446 607.278 913.824
      vertex -597.446 594.661 919.05
    endloop
  endfacet
  facet normal 1 0 0
    outer loop
      vertex -597.446 607.278 913.824
      vertex -597.446 593.661 919.05
      vertex -597.446 580.337 886.883
    endloop
  endfacet
  facet normal 0 -0.92388 0.382683
    outer loop
      vertex -597.446 580.337 886.883
      vertex -597.446 593.661 919.05
      vertex -599.319 580.337 886.883
    endloop
  endfacet
  facet normal 0 0.923879 -0.382685
    outer loop
      vertex -635.546 607.985 913.117
      vertex -634.33 594.661 880.95
      vertex -635.546 594.661 880.95
    endloop
  endfacet
  facet normal -0 0.382684 0.923879
    outer loop
      vertex -635.546 607.278 913.824
      vertex -597.446 594.661 919.05
      vertex -597.446 607.278 913.824
    endloop
  endfacet
  facet normal 0 0.382684 0.923879
    outer loop
      vertex -597.446 594.661 919.05
      vertex -635.546 607.278 913.824
      vertex -635.546 594.661 919.05
    endloop
  endfacet
  facet normal 0 0 -1
    outer loop
      vertex -635.546 594.661 880.95
      vertex -634.395 593.661 880.95
      vertex -635.546 593.661 880.95
    endloop
  endfacet
  facet normal 0 0 -1
    outer loop
      vertex -634.395 593.661 880.95
      vertex -635.546 594.661 880.95
      vertex -634.33 594.661 880.95
    endloop
  endfacet
  facet normal -3.52703e-06 -0.16597 -0.986131
    outer loop
      vertex -680.95 19.05 977.66
      vertex -598.805 583.992 882.577
      vertex -680.95 -0.5 980.95
    endloop
  endfacet
  facet normal -0 -0.16597 -0.986131
    outer loop
      vertex -598.805 583.992 882.577
      vertex -680.95 19.05 977.66
      vertex -635.032 583.992 882.577
    endloop
  endfacet
  facet normal 0 -0.16597 -0.986131
    outer loop
      vertex -716.302 19.05 977.66
      vertex -635.032 583.992 882.577
      vertex -680.95 19.05 977.66
    endloop
  endfacet
  facet normal 9.27343e-05 -0.165983 -0.986129
    outer loop
      vertex -635.032 583.992 882.577
      vertex -716.302 19.05 977.66
      vertex -635.114 584.116 882.556
    endloop
  endfacet
  facet normal 6.69068e-06 -0.165971 -0.986131
    outer loop
      vertex -635.114 584.116 882.556
      vertex -716.302 19.05 977.66
      vertex -635.546 593.661 880.95
    endloop
  endfacet
  facet normal -0 -0.165972 -0.986131
    outer loop
      vertex -634.395 593.661 880.95
      vertex -635.114 584.116 882.556
      vertex -635.546 593.661 880.95
    endloop
  endfacet
  facet normal -0.990268 0.139173 0
    outer loop
      vertex -716.443 19.05 1014.74
      vertex -635.546 594.661 919.05
      vertex -635.546 594.661 880.95
    endloop
  endfacet
  facet normal -0.990268 0.139173 0
    outer loop
      vertex -635.546 594.661 919.05
      vertex -716.443 19.05 1014.74
      vertex -716.443 19.05 1015.93
    endloop
  endfacet
  facet normal 0.990268 -0.139173 -1.46382e-07
    outer loop
      vertex -597.446 593.661 919.05
      vertex -680.95 -0.5 980.95
      vertex -599.319 580.337 886.883
    endloop
  endfacet
  facet normal 0.990268 -0.139172 6.78127e-06
    outer loop
      vertex -598.805 583.992 882.577
      vertex -599.319 580.337 886.883
      vertex -680.95 -0.5 980.95
    endloop
  endfacet
  facet normal -0 0.16597 0.986131
    outer loop
      vertex -635.546 594.661 919.05
      vertex -678.343 19.05 1015.93
      vertex -597.446 594.661 919.05
    endloop
  endfacet
  facet normal 0 0.16597 0.986131
    outer loop
      vertex -678.343 19.05 1015.93
      vertex -635.546 594.661 919.05
      vertex -716.443 19.05 1015.93
    endloop
  endfacet
  facet normal 0.767577 0 0.640956
    outer loop
      vertex -678.343 19.05 1015.93
      vertex -597.446 593.661 919.05
      vertex -597.446 594.661 919.05
    endloop
  endfacet
  facet normal 0.767719 -4.85455e-05 0.640787
    outer loop
      vertex -597.446 593.661 919.05
      vertex -678.343 19.05 1015.93
      vertex -678.202 19.05 1015.76
    endloop
  endfacet
  facet normal 0.990268 -0.139173 0
    outer loop
      vertex -678.202 19.05 980.95
      vertex -597.446 593.661 919.05
      vertex -678.202 19.05 1015.76
    endloop
  endfacet
  facet normal 0.990268 -0.139172 6.89193e-06
    outer loop
      vertex -597.446 593.661 919.05
      vertex -678.202 19.05 980.95
      vertex -680.95 -0.5 980.95
    endloop
  endfacet
  facet normal -0.767468 -3.74262e-05 -0.641088
    outer loop
      vertex -716.443 19.05 977.828
      vertex -635.546 593.661 880.95
      vertex -716.302 19.05 977.66
    endloop
  endfacet
  facet normal -0.767577 0 -0.640957
    outer loop
      vertex -635.546 593.661 880.95
      vertex -716.443 19.05 977.828
      vertex -635.546 594.661 880.95
    endloop
  endfacet
  facet normal -0 0 1
    outer loop
      vertex -719.05 19.05 1019.05
      vertex 719.05 -19.05 1019.05
      vertex 719.05 19.05 1019.05
    endloop
  endfacet
  facet normal 0 0 1
    outer loop
      vertex 719.05 -19.05 1019.05
      vertex -719.05 19.05 1019.05
      vertex -719.05 -19.05 1019.05
    endloop
  endfacet
  facet normal -0.990268 0.139173 0
    outer loop
      vertex -635.546 594.661 880.95
      vertex -716.443 19.05 977.828
      vertex -716.443 19.05 1014.74
    endloop
  endfacet
  facet normal -1 0 0
    outer loop
      vertex 680.95 -19.05 -580.95
      vertex 680.95 19.05 977.66
      vertex 680.95 19.05 -580.95
    endloop
  endfacet
  facet normal -1 0 0
    outer loop
      vertex 680.95 -19.05 980.95
      vertex 680.95 19.05 977.66
      vertex 680.95 -19.05 -580.95
    endloop
  endfacet
  facet normal -1 0 0
    outer loop
      vertex 680.95 19.05 977.66
      vertex 680.95 -19.05 980.95
      vertex 680.95 -0.5 980.95
    endloop
  endfacet
  facet normal 1 -0 0
    outer loop
      vertex 719.05 -19.05 1019.05
      vertex 719.05 19.05 -619.05
      vertex 719.05 19.05 1019.05
    endloop
  endfacet
  facet normal 1 0 0
    outer loop
      vertex 719.05 19.05 -619.05
      vertex 719.05 -19.05 1019.05
      vertex 719.05 -19.05 -619.05
    endloop
  endfacet
  facet normal 0.990268 0.139173 -0
    outer loop
      vertex 716.443 19.05 -618.455
      vertex 552.042 1188.82 -580.95
      vertex 716.443 19.05 -580.95
    endloop
  endfacet
  facet normal 0.990268 0.139173 0
    outer loop
      vertex 716.443 19.05 -618.455
      vertex 552.042 1188.82 -619.05
      vertex 552.042 1188.82 -580.95
    endloop
  endfacet
  facet normal 0.990268 0.139173 0
    outer loop
      vertex 552.042 1188.82 -619.05
      vertex 716.443 19.05 -618.455
      vertex 716.443 19.05 -619.05
    endloop
  endfacet
  facet normal -1 0 0
    outer loop
      vertex 513.942 1207.37 200
      vertex 513.942 1202.15 213.117
      vertex 513.942 1207.37 200.5
    endloop
  endfacet
  facet normal -1 0 0
    outer loop
      vertex 513.942 1207.37 200
      vertex 513.942 1201.44 213.824
      vertex 513.942 1202.15 213.117
    endloop
  endfacet
  facet normal -1 0 0
    outer loop
      vertex 513.942 1169.27 200
      vertex 513.942 1201.44 213.824
      vertex 513.942 1207.37 200
    endloop
  endfacet
  facet normal -1 0 0
    outer loop
      vertex 513.942 1201.44 213.824
      vertex 513.942 1169.27 200
      vertex 513.942 1169.27 200.5
    endloop
  endfacet
  facet normal -1 0 0
    outer loop
      vertex 513.942 1169.27 -580.95
      vertex 513.942 1207.37 161.9
      vertex 513.942 1207.37 -580.95
    endloop
  endfacet
  facet normal -1 -0 0
    outer loop
      vertex 513.942 1207.37 161.9
      vertex 513.942 1169.27 -580.95
      vertex 513.942 1169.27 161.9
    endloop
  endfacet
  facet normal -0.990268 -0.139173 0
    outer loop
      vertex 678.202 19.05 -619.05
      vertex 516.549 1169.27 -618.455
      vertex 516.549 1169.27 -619.05
    endloop
  endfacet
  facet normal -0.990268 -0.139173 0
    outer loop
      vertex 516.549 1169.27 -618.455
      vertex 678.202 19.05 -619.05
      vertex 678.202 19.05 -581.577
    endloop
  endfacet
  facet normal -0.990268 -0.139173 0
    outer loop
      vertex 678.202 19.05 -581.577
      vertex 516.549 1169.27 -580.95
      vertex 516.549 1169.27 -618.455
    endloop
  endfacet
  facet normal -0.990268 -0.139173 0
    outer loop
      vertex 516.549 1169.27 -580.95
      vertex 678.202 19.05 -581.577
      vertex 678.202 19.05 -580.95
    endloop
  endfacet
  facet normal 1 0 0
    outer loop
      vertex 552.042 1207.37 200.5
      vertex 552.042 1175.2 186.176
      vertex 552.042 1188.82 -580.95
    endloop
  endfacet
  facet normal 1 0 0
    outer loop
      vertex 552.042 1169.27 -580.95
      vertex 552.042 1175.2 186.176
      vertex 552.042 1174.5 186.883
    endloop
  endfacet
  facet normal 1 0 0
    outer loop
      vertex 552.042 1169.27 -580.95
      vertex 552.042 1174.5 186.883
      vertex 552.042 1169.27 193.04
    endloop
  endfacet
  facet normal 1 0 0
    outer loop
      vertex 552.042 1175.2 186.176
      vertex 552.042 1169.27 -580.95
      vertex 552.042 1188.82 -580.95
    endloop
  endfacet
  facet normal 1 0 0
    outer loop
      vertex 552.042 1175.2 186.176
      vertex 552.042 1207.37 200.5
      vertex 552.042 1202.15 213.117
    endloop
  endfacet
  facet normal 1 0 0
    outer loop
      vertex 552.042 1207.37 200.5
      vertex 552.042 1188.82 -580.95
      vertex 552.042 1207.37 -619.05
    endloop
  endfacet
  facet normal 1 0 0
    outer loop
      vertex 552.042 1207.37 -619.05
      vertex 552.042 1188.82 -580.95
      vertex 552.042 1188.82 -619.05
    endloop
  endfacet
  facet normal 0 -0.382684 0.923879
    outer loop
      vertex 513.942 1201.44 213.824
      vertex 513.942 1169.27 200.5
      vertex 515.158 1169.27 200.5
    endloop
  endfacet
  facet normal 0 0.923879 0.382684
    outer loop
      vertex 552.042 1207.37 200.5
      vertex 513.942 1202.15 213.117
      vertex 552.042 1202.15 213.117
    endloop
  endfacet
  facet normal 0 0.923879 0.382684
    outer loop
      vertex 513.942 1202.15 213.117
      vertex 552.042 1207.37 200.5
      vertex 513.942 1207.37 200.5
    endloop
  endfacet
  facet normal 0 -0.762388 -0.647121
    outer loop
      vertex 597.446 580.337 886.883
      vertex 598.805 583.992 882.577
      vertex 599.319 580.337 886.883
    endloop
  endfacet
  facet normal 1.1621e-05 -0.762389 -0.647118
    outer loop
      vertex 514.677 1169.27 193.04
      vertex 598.805 583.992 882.577
      vertex 597.446 580.337 886.883
    endloop
  endfacet
  facet normal -0 -0.76239 -0.647118
    outer loop
      vertex 552.042 1169.27 193.04
      vertex 598.805 583.992 882.577
      vertex 514.677 1169.27 193.04
    endloop
  endfacet
  facet normal 0 -0.76239 -0.647118
    outer loop
      vertex 598.805 583.992 882.577
      vertex 552.042 1169.27 193.04
      vertex 635.032 583.992 882.577
    endloop
  endfacet
  facet normal 7.4083e-06 -0.76239 -0.647118
    outer loop
      vertex 635.032 583.992 882.577
      vertex 552.042 1169.27 193.04
      vertex 552.042 1174.5 186.883
    endloop
  endfacet
  facet normal -0.995863 -0.0642585 0.064255
    outer loop
      vertex 597.446 580.337 886.883
      vertex 515.158 1169.27 200.5
      vertex 514.677 1169.27 193.04
    endloop
  endfacet
  facet normal -0.995863 -0.0642566 0.0642566
    outer loop
      vertex 515.158 1169.27 200.5
      vertex 597.446 580.337 886.883
      vertex 597.446 607.278 913.824
    endloop
  endfacet
  facet normal -0.995863 -0.064257 0.0642563
    outer loop
      vertex 513.942 1201.44 213.824
      vertex 515.158 1169.27 200.5
      vertex 597.446 607.278 913.824
    endloop
  endfacet
  facet normal 0 0.76239 0.647118
    outer loop
      vertex 552.042 1202.15 213.117
      vertex 597.446 607.985 913.117
      vertex 635.546 607.985 913.117
    endloop
  endfacet
  facet normal 0 0.76239 0.647118
    outer loop
      vertex 597.446 607.985 913.117
      vertex 552.042 1202.15 213.117
      vertex 513.942 1202.15 213.117
    endloop
  endfacet
  facet normal -0.667563 0.526462 0.526496
    outer loop
      vertex 513.942 1201.44 213.824
      vertex 597.446 607.985 913.117
      vertex 513.942 1202.15 213.117
    endloop
  endfacet
  facet normal -0.667612 0.526425 0.526471
    outer loop
      vertex 597.446 607.985 913.117
      vertex 513.942 1201.44 213.824
      vertex 597.446 607.278 913.824
    endloop
  endfacet
  facet normal 0.667173 -0.526754 -0.526698
    outer loop
      vertex 635.114 584.116 882.556
      vertex 552.042 1174.5 186.883
      vertex 552.042 1175.2 186.176
    endloop
  endfacet
  facet normal 0.667283 -0.526672 -0.526641
    outer loop
      vertex 552.042 1174.5 186.883
      vertex 635.114 584.116 882.556
      vertex 635.032 583.992 882.577
    endloop
  endfacet
  facet normal 1 0 0
    outer loop
      vertex 635.546 594.661 919.05
      vertex 635.546 607.985 913.117
      vertex 635.546 607.278 913.824
    endloop
  endfacet
  facet normal 1 0 0
    outer loop
      vertex 635.546 607.985 913.117
      vertex 635.546 594.661 919.05
      vertex 635.546 594.661 880.95
    endloop
  endfacet
  facet normal -0 0.707076 0.707137
    outer loop
      vertex 597.446 607.985 913.117
      vertex 635.546 607.278 913.824
      vertex 635.546 607.985 913.117
    endloop
  endfacet
  facet normal 0 0.707076 0.707137
    outer loop
      vertex 635.546 607.278 913.824
      vertex 597.446 607.985 913.117
      vertex 597.446 607.278 913.824
    endloop
  endfacet
  facet normal 0.995863 0.0642562 -0.0642569
    outer loop
      vertex 634.33 594.661 880.95
      vertex 552.042 1202.15 213.117
      vertex 635.546 607.985 913.117
    endloop
  endfacet
  facet normal 0.995863 0.0642566 -0.0642566
    outer loop
      vertex 552.042 1202.15 213.117
      vertex 634.33 594.661 880.95
      vertex 552.042 1175.2 186.176
    endloop
  endfacet
  facet normal 0.995863 0.0642472 -0.0642644
    outer loop
      vertex 634.395 593.661 880.95
      vertex 552.042 1175.2 186.176
      vertex 634.33 594.661 880.95
    endloop
  endfacet
  facet normal 0.995863 0.0642556 -0.0642573
    outer loop
      vertex 552.042 1175.2 186.176
      vertex 634.395 593.661 880.95
      vertex 635.114 584.116 882.556
    endloop
  endfacet
  facet normal -1 0 0
    outer loop
      vertex 597.446 607.278 913.824
      vertex 597.446 593.661 919.05
      vertex 597.446 594.661 919.05
    endloop
  endfacet
  facet normal -1 0 -0
    outer loop
      vertex 597.446 593.661 919.05
      vertex 597.446 607.278 913.824
      vertex 597.446 580.337 886.883
    endloop
  endfacet
  facet normal 0 -0.92388 0.382683
    outer loop
      vertex 597.446 593.661 919.05
      vertex 597.446 580.337 886.883
      vertex 599.319 580.337 886.883
    endloop
  endfacet
  facet normal 0 0.923879 -0.382685
    outer loop
      vertex 635.546 594.661 880.95
      vertex 634.33 594.661 880.95
      vertex 635.546 607.985 913.117
    endloop
  endfacet
  facet normal -0 0.382684 0.923879
    outer loop
      vertex 597.446 607.278 913.824
      vertex 635.546 594.661 919.05
      vertex 635.546 607.278 913.824
    endloop
  endfacet
  facet normal 0 0.382684 0.923879
    outer loop
      vertex 635.546 594.661 919.05
      vertex 597.446 607.278 913.824
      vertex 597.446 594.661 919.05
    endloop
  endfacet
  facet normal 0 0 -1
    outer loop
      vertex 634.395 593.661 880.95
      vertex 635.546 594.661 880.95
      vertex 635.546 593.661 880.95
    endloop
  endfacet
  facet normal -0 0 -1
    outer loop
      vertex 635.546 594.661 880.95
      vertex 634.395 593.661 880.95
      vertex 634.33 594.661 880.95
    endloop
  endfacet
  facet normal 3.52703e-06 -0.16597 -0.986131
    outer loop
      vertex 598.805 583.992 882.577
      vertex 680.95 19.05 977.66
      vertex 680.95 -0.5 980.95
    endloop
  endfacet
  facet normal -1.00034e-05 -0.165971 -0.986131
    outer loop
      vertex 680.95 19.05 977.66
      vertex 635.114 584.116 882.556
      vertex 635.546 593.661 880.95
    endloop
  endfacet
  facet normal -0.000100601 -0.165978 -0.986129
    outer loop
      vertex 680.95 19.05 977.66
      vertex 635.032 583.992 882.577
      vertex 635.114 584.116 882.556
    endloop
  endfacet
  facet normal 0 -0.16597 -0.986131
    outer loop
      vertex 680.95 19.05 977.66
      vertex 598.805 583.992 882.577
      vertex 635.032 583.992 882.577
    endloop
  endfacet
  facet normal -0 -0.16597 -0.986131
    outer loop
      vertex 716.302 19.05 977.66
      vertex 680.95 19.05 977.66
      vertex 635.546 593.661 880.95
    endloop
  endfacet
  facet normal -0 -0.165972 -0.986131
    outer loop
      vertex 635.546 593.661 880.95
      vertex 635.114 584.116 882.556
      vertex 634.395 593.661 880.95
    endloop
  endfacet
  facet normal 0.990268 0.139173 -0
    outer loop
      vertex 716.443 19.05 1014.74
      vertex 635.546 594.661 919.05
      vertex 716.443 19.05 1015.93
    endloop
  endfacet
  facet normal 0.990268 0.139173 0
    outer loop
      vertex 635.546 594.661 919.05
      vertex 716.443 19.05 1014.74
      vertex 635.546 594.661 880.95
    endloop
  endfacet
  facet normal -0.990268 -0.139172 6.78127e-06
    outer loop
      vertex 598.805 583.992 882.577
      vertex 680.95 -0.5 980.95
      vertex 599.319 580.337 886.883
    endloop
  endfacet
  facet normal -0.990268 -0.139173 -1.46382e-07
    outer loop
      vertex 597.446 593.661 919.05
      vertex 599.319 580.337 886.883
      vertex 680.95 -0.5 980.95
    endloop
  endfacet
  facet normal 0 0.16597 0.986131
    outer loop
      vertex 635.546 594.661 919.05
      vertex 678.343 19.05 1015.93
      vertex 716.443 19.05 1015.93
    endloop
  endfacet
  facet normal 0 0.16597 0.986131
    outer loop
      vertex 678.343 19.05 1015.93
      vertex 635.546 594.661 919.05
      vertex 597.446 594.661 919.05
    endloop
  endfacet
  facet normal -0.767719 -4.85455e-05 0.640787
    outer loop
      vertex 678.343 19.05 1015.93
      vertex 597.446 593.661 919.05
      vertex 678.202 19.05 1015.76
    endloop
  endfacet
  facet normal -0.767577 0 0.640956
    outer loop
      vertex 597.446 593.661 919.05
      vertex 678.343 19.05 1015.93
      vertex 597.446 594.661 919.05
    endloop
  endfacet
  facet normal -0.990268 -0.139172 6.89193e-06
    outer loop
      vertex 597.446 593.661 919.05
      vertex 680.95 -0.5 980.95
      vertex 678.202 19.05 980.95
    endloop
  endfacet
  facet normal -0.990268 -0.139173 0
    outer loop
      vertex 597.446 593.661 919.05
      vertex 678.202 19.05 980.95
      vertex 678.202 19.05 1015.76
    endloop
  endfacet
  facet normal 0.767577 0 -0.640957
    outer loop
      vertex 716.443 19.05 977.828
      vertex 635.546 593.661 880.95
      vertex 635.546 594.661 880.95
    endloop
  endfacet
  facet normal 0.767468 -3.74262e-05 -0.641088
    outer loop
      vertex 635.546 593.661 880.95
      vertex 716.443 19.05 977.828
      vertex 716.302 19.05 977.66
    endloop
  endfacet
  facet normal 0.990268 0.139173 -0
    outer loop
      vertex 716.443 19.05 977.828
      vertex 635.546 594.661 880.95
      vertex 716.443 19.05 1014.74
    endloop
  endfacet
  facet normal -0 0 1
    outer loop
      vertex -513.942 1207.37 -580.95
      vertex 513.942 1169.27 -580.95
      vertex 513.942 1207.37 -580.95
    endloop
  endfacet
  facet normal 0 0 1
    outer loop
      vertex 513.942 1169.27 -580.95
      vertex -513.942 1207.37 -580.95
      vertex -513.942 1169.27 -580.95
    endloop
  endfacet
  facet normal -0 0 1
    outer loop
      vertex -513.942 1207.37 200
      vertex 513.942 1169.27 200
      vertex 513.942 1207.37 200
    endloop
  endfacet
  facet normal 0 0 1
    outer loop
      vertex 513.942 1169.27 200
      vertex -513.942 1207.37 200
      vertex -513.942 1169.27 200
    endloop
  endfacet
  facet normal 0 0 -1
    outer loop
      vertex -513.942 1169.27 161.9
      vertex 513.942 1207.37 161.9
      vertex 513.942 1169.27 161.9
    endloop
  endfacet
  facet normal -0 0 -1
    outer loop
      vertex 513.942 1207.37 161.9
      vertex -513.942 1169.27 161.9
      vertex -513.942 1207.37 161.9
    endloop
  endfacet
  facet normal 0 0 -1
    outer loop
      vertex 680.95 -19.05 980.95
      vertex 678.202 19.05 980.95
      vertex 680.95 -0.5 980.95
    endloop
  endfacet
  facet normal 0 0 -1
    outer loop
      vertex 680.95 -19.05 980.95
      vertex -678.202 19.05 980.95
      vertex 678.202 19.05 980.95
    endloop
  endfacet
  facet normal 0 0 -1
    outer loop
      vertex -680.95 -19.05 980.95
      vertex -678.202 19.05 980.95
      vertex 680.95 -19.05 980.95
    endloop
  endfacet
  facet normal 0 0 -1
    outer loop
      vertex -678.202 19.05 980.95
      vertex -680.95 -19.05 980.95
      vertex -680.95 -0.5 980.95
    endloop
  endfacet
endsolid OpenSCAD_Model
